<svg xmlns="http://www.w3.org/2000/svg" version="1.1" xmlns:xlink="http://www.w3.org/1999/xlink" xmlns:svgjs="http://svgjs.dev/svgjs" width="1000" height="999" viewBox="0 0 1000 999"><g transform="matrix(1,0,0,1,-0.215743440233382,-0.21552769679306039)"><svg viewBox="0 0 343 343" data-background-color="#ffffff" preserveAspectRatio="xMidYMid meet" height="999" width="1000" xmlns="http://www.w3.org/2000/svg" xmlns:xlink="http://www.w3.org/1999/xlink"><g id="tight-bounds" transform="matrix(1,0,0,1,0.0740000000000407,0.07400000000001228)"><svg viewBox="0 0 342.85155851775386 342.85155851775386" height="342.85155851775386" width="342.85155851775386"><g><svg></svg></g><g><svg viewBox="0 0 342.85155851775386 342.85155851775386" height="342.85155851775386" width="342.85155851775386"><g><path d="M0 171.426c0-94.676 76.75-171.426 171.426-171.426 94.676 0 171.426 76.75 171.426 171.426 0 94.676-76.75 171.426-171.426 171.426-94.676 0-171.426-76.75-171.426-171.426zM171.426 339.792c92.986 0 168.366-75.38 168.366-168.366 0-92.986-75.38-168.366-168.366-168.366-92.986 0-168.366 75.38-168.366 168.366 0 92.986 75.38 168.366 168.366 168.366z" data-fill-palette-color="tertiary" fill="#f3a83c" stroke="transparent"></path><ellipse rx="164.56874808852186" ry="164.56874808852186" cx="171.42577925887693" cy="171.42577925887693" fill="#f3a83c" stroke="transparent" stroke-width="0" fill-opacity="1" data-fill-palette-color="tertiary"></ellipse></g><g transform="matrix(1,0,0,1,64.84655864529837,99.02707252236493)"><svg viewBox="0 0 213.1584412271571 144.797413473024" height="144.797413473024" width="213.1584412271571"><g><svg viewBox="0 0 213.1584412271571 144.797413473024" height="144.797413473024" width="213.1584412271571"><g><svg viewBox="0 0 213.1584412271571 144.797413473024" height="144.797413473024" width="213.1584412271571"><g transform="matrix(1,0,0,1,0,81.89529286615364)"><svg viewBox="0 0 213.1584412271571 62.90212060687034" height="62.90212060687034" width="213.1584412271571"><g><svg viewBox="0 0 213.1584412271571 62.90212060687034" height="62.90212060687034" width="213.1584412271571"><g><svg viewBox="0 0 213.1584412271571 33.926398166456146" height="33.926398166456146" width="213.1584412271571"><g transform="matrix(1,0,0,1,0,0)"><svg width="213.1584412271571" viewBox="0.699999988079071 -35.70000076293945 228.6800079345703 36.400001525878906" height="33.926398166456146" data-palette-color="#ffffff"><path d="M21.7-1.4L21.7 0 8.7 0 8.7-1.4 10.7-1.4Q12.2-1.4 12.6-1.98 13-2.55 13-3.6L13-3.6 13-30.6Q13-31.35 12.9-31.78 12.8-32.2 12.28-32.55 11.75-32.9 10.7-32.9L10.7-32.9 7.7-32.9Q5.05-32.9 3.63-31.28 2.2-29.65 2.1-27.8L2.1-27.8 0.7-28.1 1.2-35 29.3-35 29.8-28.1 28.4-27.8Q28.3-29.6 26.85-31.25 25.4-32.9 22.8-32.9L22.8-32.9 19.8-32.9Q18.7-32.9 18.15-32.52 17.6-32.15 17.5-31.75 17.4-31.35 17.4-30.6L17.4-30.6 17.4-3.6Q17.4-2.9 17.5-2.5 17.6-2.1 18.15-1.75 18.7-1.4 19.8-1.4L19.8-1.4 21.7-1.4ZM32.5-35L40.2-35 49.7-35.5Q54.1-35.5 56.9-33.65 59.7-31.8 59.7-28.6L59.7-28.6Q59.7-24.15 57.3-21.35 54.9-18.55 51.4-17.1L51.4-17.1 59.5-4.9Q60-4.1 61.42-2.75 62.85-1.4 64-1.4L64-1.4 64.9-1.4 64.9 0 57.5 0Q57.65 0 56.55-1.5 55.45-3 55.3-3.3L55.3-3.3 47-16.1Q46.5-16 45-16 43.5-16 42.6-16.1L42.6-16.1 42.2-18.1Q42.9-18 45.2-18 47.5-18 49.8-18.6 52.1-19.2 53.85-20.88 55.6-22.55 55.6-25.2L55.6-25.2Q55.6-32.6 46.1-32.6L46.1-32.6 40.9-32.4 40.9-3.7Q40.9-2.95 41-2.55 41.1-2.15 41.65-1.78 42.2-1.4 43.3-1.4L43.3-1.4 45.2-1.4 45.2 0 32.5 0 32.5-1.4 34.1-1.4Q35.2-1.4 35.75-1.78 36.3-2.15 36.4-2.55 36.5-2.95 36.5-3.7L36.5-3.7 36.5-31.3Q36.5-32.45 36.02-32.98 35.55-33.5 34.1-33.5L34.1-33.5 32.5-33.5 32.5-35ZM80.5-1.4L80.5 0 67.8 0 67.8-1.4 69.5-1.4Q71-1.4 71.45-2 71.89-2.6 71.89-3.7L71.89-3.7 71.89-31.3Q71.89-32.4 71.45-33 71-33.6 69.5-33.6L69.5-33.6 67.8-33.6 67.8-35 80.5-35 80.5-33.6 78.59-33.6Q77.09-33.6 76.65-33 76.2-32.4 76.2-31.3L76.2-31.3 76.2-3.7Q76.2-2.6 76.65-2 77.09-1.4 78.59-1.4L78.59-1.4 80.5-1.4ZM94.59-15.7L94.19-17.7 96.59-17.6Q100.34-17.6 103.49-18.8L103.49-18.8Q105.34-19.5 106.47-21 107.59-22.5 107.59-24.7L107.59-24.7Q107.59-32.6 98.09-32.6L98.09-32.6 92.89-32.4 92.89-3.6Q92.89-2.9 92.99-2.5 93.09-2.1 93.64-1.75 94.19-1.4 95.29-1.4L95.29-1.4 97.19-1.4 97.19 0 84.49 0 84.49-1.4 86.09-1.4Q87.19-1.4 87.74-1.75 88.29-2.1 88.39-2.5 88.49-2.9 88.49-3.6L88.49-3.6 88.49-31.3Q88.49-32.45 88.02-32.98 87.54-33.5 86.09-33.5L86.09-33.5 84.49-33.5 84.49-35 92.19-35 101.69-35.5Q106.19-35.5 108.94-33.55 111.69-31.6 111.69-28.08 111.69-24.55 110.07-21.93 108.44-19.3 106.04-18L106.04-18Q101.49-15.6 97.89-15.6L97.89-15.6Q95.79-15.6 94.59-15.7L94.59-15.7ZM145.89-1.4L145.89 0 132.89 0 132.89-1.4 134.89-1.4Q136.39-1.4 136.79-1.98 137.19-2.55 137.19-3.6L137.19-3.6 137.19-30.6Q137.19-31.35 137.09-31.78 136.99-32.2 136.46-32.55 135.94-32.9 134.89-32.9L134.89-32.9 131.89-32.9Q129.24-32.9 127.81-31.28 126.39-29.65 126.29-27.8L126.29-27.8 124.89-28.1 125.39-35 153.49-35 153.99-28.1 152.59-27.8Q152.49-29.6 151.04-31.25 149.59-32.9 146.99-32.9L146.99-32.9 143.99-32.9Q142.89-32.9 142.34-32.52 141.79-32.15 141.69-31.75 141.59-31.35 141.59-30.6L141.59-30.6 141.59-3.6Q141.59-2.9 141.69-2.5 141.79-2.1 142.34-1.75 142.89-1.4 143.99-1.4L143.99-1.4 145.89-1.4ZM169.38-1.4L169.38 0 156.69 0 156.69-1.4 158.38-1.4Q159.88-1.4 160.34-2 160.78-2.6 160.78-3.7L160.78-3.7 160.78-31.3Q160.78-32.4 160.34-33 159.88-33.6 158.38-33.6L158.38-33.6 156.69-33.6 156.69-35 169.38-35 169.38-33.6 167.49-33.6Q165.99-33.6 165.53-33 165.09-32.4 165.09-31.3L165.09-31.3 165.09-3.7Q165.09-2.6 165.53-2 165.99-1.4 167.49-1.4L167.49-1.4 169.38-1.4ZM172.88-2.4L172.88-2.4 173.58-8.9 175.28-8.8Q175.28-6.05 178.56-4.38 181.83-2.7 186.01-2.7 190.18-2.7 192.28-3.98 194.38-5.25 194.38-7.2L194.38-7.2Q194.38-10.5 190.88-13.1L190.88-13.1Q189.43-14.15 187.83-14.95L187.83-14.95Q184.18-16.85 183.26-17.38 182.33-17.9 181.18-18.45 180.03-19 179.06-19.63 178.08-20.25 176.98-21.15L176.98-21.15Q174.48-23.15 174.48-25.63 174.48-28.1 175.36-29.95 176.23-31.8 177.56-32.85 178.88-33.9 180.68-34.6L180.68-34.6Q183.73-35.7 187.51-35.7 191.28-35.7 194.78-33.8L194.78-33.8 194.18-28 192.48-28Q192.48-32.7 184.58-32.7L184.58-32.7Q180.93-32.7 179.11-31.55 177.28-30.4 177.28-28.4L177.28-28.4Q177.28-25.2 187.68-20.7L187.68-20.7Q194.53-17.75 196.43-14.15L196.43-14.15Q197.38-12.35 197.38-10.2L197.38-10.2Q197.38-5 193.21-2.15 189.03 0.7 183.13 0.7 177.23 0.7 172.88-2.4ZM229.38-6.9L227.68 0 200.88 0 200.88-1.4 202.58-1.4Q204.03-1.4 204.5-1.95 204.98-2.5 204.98-3.7L204.98-3.7 204.98-31.3Q204.98-32.3 204.35-32.95 203.73-33.6 202.58-33.6L202.58-33.6 200.88-33.6 200.88-35 227.28-35 227.68-28.1 226.28-27.8Q226.28-29.6 224.83-31.25 223.38-32.9 220.78-32.9L220.78-32.9 211.68-32.9Q210.18-32.9 209.73-32.33 209.28-31.75 209.28-30.7L209.28-30.7 209.28-19.3 219.28-19.3Q220.03-19.3 220.43-19.38 220.83-19.45 221.16-19.9 221.48-20.35 221.48-21.2L221.48-21.2 221.48-23.5 222.98-23.5 222.98-13.1 221.48-13.1 221.48-15.2Q221.48-16.45 220.93-16.82 220.38-17.2 219.28-17.2L219.28-17.2 209.28-17.2 209.28-4.3Q209.28-3.25 209.73-2.68 210.18-2.1 211.68-2.1L211.68-2.1 221.18-2.1Q223.83-2.1 225.85-3.8 227.88-5.5 227.98-7.1L227.98-7.1 229.38-6.9Z" opacity="1" transform="matrix(1,0,0,1,0,0)" fill="#ffffff" class="undefined-text-0" data-fill-palette-color="quaternary" id="text-0"></path></svg></g></svg></g><g transform="matrix(1,0,0,1,0,41.93560654000045)"><svg viewBox="0 0 213.1584412271571 20.966514066869898" height="20.966514066869898" width="213.1584412271571"><g transform="matrix(1,0,0,1,0,0)"><svg width="213.1584412271571" viewBox="2 -37.099998474121094 479.3599853515625 47.14999771118164" height="20.966514066869898" data-palette-color="#ffffff"><path d="M2-36.25L25.55-36.25 25.55-31.05 16.4-31.05 16.4 0 10.95 0 10.95-31.05 2-31.05 2-36.25ZM53.43-20.9L53.43 0.45 49.83 0.45 49.33-5.35Q48.18-2.8 46.1-1.15 44.03 0.5 40.83 0.5L40.83 0.5Q37.63 0.5 35.75-1.23 33.88-2.95 33.78-5.75L33.78-5.75 33.78-20.9 38.03-20.9 38.03-7.65Q38.13-6.1 39.15-5 40.18-3.9 42.33-3.75L42.33-3.75Q43.83-3.75 45.08-4.28 46.33-4.8 47.23-5.7 48.13-6.6 48.63-7.85 49.13-9.1 49.13-10.6L49.13-10.6 49.13-20.9 53.43-20.9ZM85.39-20.85L85.39-30.1 89.64-30.1 89.64-20.85 95.24-20.85 95.24-17.05 89.64-17.05 89.64 0 85.39 0 85.39-17.05 81.64-17.05 81.64-20.85 85.39-20.85ZM120.07-21.45L119.12-15.95Q117.72-15.95 116.42-15.58 115.12-15.2 114.09-14.45 113.07-13.7 112.47-12.58 111.87-11.45 111.87-10L111.87-10 111.87 0 107.62 0 107.62-20.9 111.37-20.9Q111.47-19.35 111.54-18.07 111.62-16.8 111.72-15.55L111.72-15.55Q112.37-16.9 113.42-18 114.47-19.1 115.67-19.85 116.87-20.6 118.02-21.03 119.17-21.45 120.07-21.45L120.07-21.45ZM131.45-28.9L131.45-28.9Q131.45-30.1 132.32-30.9 133.2-31.7 134.2-31.7L134.2-31.7Q135.2-31.7 136.05-30.9 136.9-30.1 136.9-28.9L136.9-28.9Q136.9-27.7 136.05-26.93 135.2-26.15 134.2-26.15L134.2-26.15Q133.2-26.15 132.32-26.93 131.45-27.7 131.45-28.9ZM136.25-20.9L136.25 0 132 0 132-20.9 136.25-20.9ZM168.78-10.5L168.78-10.5Q168.78-11.95 168.33-13.18 167.88-14.4 167.03-15.3 166.18-16.2 164.98-16.73 163.78-17.25 162.28-17.25L162.28-17.25Q160.78-17.25 159.5-16.73 158.23-16.2 157.33-15.3 156.43-14.4 155.9-13.18 155.38-11.95 155.38-10.5L155.38-10.5Q155.38-9.05 155.9-7.8 156.43-6.55 157.33-5.65 158.23-4.75 159.5-4.23 160.78-3.7 162.28-3.7L162.28-3.7Q163.78-3.7 164.98-4.23 166.18-4.75 167.03-5.68 167.88-6.6 168.33-7.83 168.78-9.05 168.78-10.5ZM173.43-10.4L173.43-10.4Q173.43-8.05 172.63-6.05 171.83-4.05 170.38-2.6 168.93-1.15 166.9-0.33 164.88 0.5 162.48 0.5L162.48 0.5Q161.23 0.5 160.1 0.23 158.98-0.05 158.03-0.53 157.08-1 156.38-1.58 155.68-2.15 155.33-2.75L155.33-2.75Q155.33-2.5 155.35-2.23 155.38-1.95 155.38-1.7L155.38-1.7 155.38 10.05 151.08 10.05 151.08-20.9 155.23-20.9Q155.23-20.3 155.3-19.43 155.38-18.55 155.38-17.85L155.38-17.85Q155.78-18.45 156.45-19.07 157.13-19.7 158.05-20.23 158.98-20.75 160.13-21.1 161.28-21.45 162.68-21.45L162.68-21.45Q165.08-21.45 167.05-20.68 169.03-19.9 170.45-18.48 171.88-17.05 172.65-15 173.43-12.95 173.43-10.4ZM216.73-5.55L219.93-2.45Q218.43-1.1 216.28-0.3 214.13 0.5 211.88 0.5L211.88 0.5Q209.58 0.5 207.56-0.38 205.53-1.25 204.03-2.73 202.53-4.2 201.66-6.2 200.78-8.2 200.78-10.45L200.78-10.45Q200.78-12.7 201.66-14.7 202.53-16.7 204.03-18.2 205.53-19.7 207.51-20.58 209.48-21.45 211.73-21.45L211.73-21.45Q215.28-21.45 217.91-19.33 220.53-17.2 221.68-13.75L221.68-13.75Q220.13-13.2 218.13-12.4 216.13-11.6 213.98-10.73 211.83-9.85 209.68-9 207.53-8.15 205.68-7.45L205.68-7.45Q206.53-5.75 208.16-4.73 209.78-3.7 211.78-3.7L211.78-3.7Q213.13-3.7 214.51-4.2 215.88-4.7 216.73-5.55L216.73-5.55ZM216.33-14.75L216.33-14.75Q215.73-16 214.43-16.63 213.13-17.25 211.78-17.25L211.78-17.25Q210.33-17.25 209.11-16.7 207.88-16.15 206.98-15.23 206.08-14.3 205.56-13.1 205.03-11.9 205.03-10.65L205.03-10.65Q205.03-10.4 205.06-10.3 205.08-10.2 205.08-10.15L205.08-10.15Q206.38-10.65 207.91-11.28 209.43-11.9 210.93-12.53 212.43-13.15 213.83-13.73 215.23-14.3 216.33-14.75ZM236.01-20.85L236.01-30.1 240.26-30.1 240.26-20.85 245.86-20.85 245.86-17.05 240.26-17.05 240.26 0 236.01 0 236.01-17.05 232.26-17.05 232.26-20.85 236.01-20.85ZM274.47-20.85L274.47-30.1 278.72-30.1 278.72-20.85 284.32-20.85 284.32-17.05 278.72-17.05 278.72 0 274.47 0 274.47-17.05 270.72-17.05 270.72-20.85 274.47-20.85ZM316.15-20.9L316.15 0.45 312.55 0.45 312.05-5.35Q310.9-2.8 308.83-1.15 306.75 0.5 303.55 0.5L303.55 0.5Q300.35 0.5 298.48-1.23 296.6-2.95 296.5-5.75L296.5-5.75 296.5-20.9 300.75-20.9 300.75-7.65Q300.85-6.1 301.88-5 302.9-3.9 305.05-3.75L305.05-3.75Q306.55-3.75 307.8-4.28 309.05-4.8 309.95-5.7 310.85-6.6 311.35-7.85 311.85-9.1 311.85-10.6L311.85-10.6 311.85-20.9 316.15-20.9ZM348.11-20.85L348.11-30.1 352.36-30.1 352.36-20.85 357.96-20.85 357.96-17.05 352.36-17.05 352.36 0 348.11 0 348.11-17.05 344.36-17.05 344.36-20.85 348.11-20.85ZM369.79-28.9L369.79-28.9Q369.79-30.1 370.66-30.9 371.54-31.7 372.54-31.7L372.54-31.7Q373.54-31.7 374.39-30.9 375.24-30.1 375.24-28.9L375.24-28.9Q375.24-27.7 374.39-26.93 373.54-26.15 372.54-26.15L372.54-26.15Q371.54-26.15 370.66-26.93 369.79-27.7 369.79-28.9ZM374.59-20.9L374.59 0 370.34 0 370.34-20.9 374.59-20.9ZM401.07-19.05L401.07-19.05 398.82-16.05Q398.77-16.1 398.47-16.3 398.17-16.5 397.69-16.7 397.22-16.9 396.59-17.07 395.97-17.25 395.32-17.25L395.32-17.25Q394.47-17.25 393.64-16.85 392.82-16.45 392.82-15.35L392.82-15.35Q392.82-14.4 393.49-13.8 394.17-13.2 395.17-12.73 396.17-12.25 397.34-11.75 398.52-11.25 399.52-10.53 400.52-9.8 401.19-8.72 401.87-7.65 401.87-6L401.87-6Q401.87-3.2 399.94-1.38 398.02 0.45 394.67 0.45L394.67 0.45Q392.72 0.45 390.84-0.23 388.97-0.9 387.82-2.2L387.82-2.2Q388.17-2.55 388.59-3.1 389.02-3.65 389.44-4.15 389.87-4.65 390.14-4.98 390.42-5.3 390.47-5.3L390.47-5.3Q390.47-5.25 390.84-5 391.22-4.75 391.82-4.48 392.42-4.2 393.17-3.98 393.92-3.75 394.67-3.75L394.67-3.75Q395.87-3.75 396.72-4.35 397.57-4.95 397.57-5.95L397.57-5.95Q397.57-6.85 396.89-7.38 396.22-7.9 395.22-8.35 394.22-8.8 393.02-9.28 391.82-9.75 390.82-10.5 389.82-11.25 389.14-12.38 388.47-13.5 388.47-15.3L388.47-15.3Q388.47-17 389.09-18.15 389.72-19.3 390.69-20.03 391.67-20.75 392.87-21.08 394.07-21.4 395.17-21.4L395.17-21.4Q396.62-21.4 398.27-20.8 399.92-20.2 401.07-19.05ZM429.75-5.55L432.95-2.45Q431.45-1.1 429.3-0.3 427.15 0.5 424.9 0.5L424.9 0.5Q422.6 0.5 420.57-0.38 418.55-1.25 417.05-2.73 415.55-4.2 414.67-6.2 413.8-8.2 413.8-10.45L413.8-10.45Q413.8-12.7 414.67-14.7 415.55-16.7 417.05-18.2 418.55-19.7 420.52-20.58 422.5-21.45 424.75-21.45L424.75-21.45Q428.3-21.45 430.92-19.33 433.55-17.2 434.7-13.75L434.7-13.75Q433.15-13.2 431.15-12.4 429.15-11.6 427-10.73 424.85-9.85 422.7-9 420.55-8.15 418.7-7.45L418.7-7.45Q419.55-5.75 421.17-4.73 422.8-3.7 424.8-3.7L424.8-3.7Q426.15-3.7 427.52-4.2 428.9-4.7 429.75-5.55L429.75-5.55ZM429.35-14.75L429.35-14.75Q428.75-16 427.45-16.63 426.15-17.25 424.8-17.25L424.8-17.25Q423.35-17.25 422.12-16.7 420.9-16.15 420-15.23 419.1-14.3 418.57-13.1 418.05-11.9 418.05-10.65L418.05-10.65Q418.05-10.4 418.07-10.3 418.1-10.2 418.1-10.15L418.1-10.15Q419.4-10.65 420.92-11.28 422.45-11.9 423.95-12.53 425.45-13.15 426.85-13.73 428.25-14.3 429.35-14.75ZM465.21-27.75L465.21-27.75 461.21-29.25Q461.56-30.3 462.18-31.68 462.81-33.05 463.96-34.25 465.11-35.45 466.91-36.27 468.71-37.1 471.41-37.1L471.41-37.1Q473.51-37.1 475.33-36.33 477.16-35.55 478.48-34.2 479.81-32.85 480.58-31.05 481.36-29.25 481.36-27.25L481.36-27.25Q481.36-24.4 480.03-22.28 478.71-20.15 476.41-18.45L476.41-18.45Q475.71-17.95 474.91-17.4 474.11-16.85 473.38-16.15 472.66-15.45 472.18-14.5 471.71-13.55 471.71-12.25L471.71-12.25 471.71-8.3 467.11-8.3 467.11-13.2Q467.11-14.85 467.61-15.88 468.11-16.9 468.93-17.68 469.76-18.45 470.83-19.13 471.91-19.8 473.06-20.7L473.06-20.7Q476.66-23.5 476.66-27.25L476.66-27.25Q476.66-29.55 475.23-31.1 473.81-32.65 471.41-32.65L471.41-32.65Q470.01-32.65 469.01-32.35 468.01-32.05 467.28-31.43 466.56-30.8 466.06-29.88 465.56-28.95 465.21-27.75ZM469.36 0.1L469.36 0.1Q468.31 0.1 467.43-0.65 466.56-1.4 466.56-2.65L466.56-2.65Q466.56-3.9 467.43-4.7 468.31-5.5 469.36-5.5L469.36-5.5Q470.36-5.5 471.23-4.7 472.11-3.9 472.11-2.65L472.11-2.65Q472.11-1.4 471.23-0.65 470.36 0.1 469.36 0.1Z" opacity="1" transform="matrix(1,0,0,1,0,0)" fill="#ffffff" class="undefined-text-1" data-fill-palette-color="quaternary" id="text-1"></path></svg></g></svg></g></svg></g></svg></g><g transform="matrix(1,0,0,1,40.713262274387006,0)"><svg viewBox="0 0 131.7319166783831 73.88608449260934" height="73.88608449260934" width="131.7319166783831"><g><svg xmlns="http://www.w3.org/2000/svg" xmlns:xlink="http://www.w3.org/1999/xlink" version="1.1" x="0" y="0" viewBox="1.3000001907348633 22.799999237060547 97.29999542236328 54.57383346557617" style="enable-background:new 0 0 100 100;" xml:space="preserve" height="73.88608449260934" width="131.7319166783831" class="icon-icon-0" data-fill-palette-color="quaternary" id="icon-0"><g fill="#ffffff" data-fill-palette-color="quaternary"><path d="M89.3 53.1c-6-3.9-13.1-6.2-20.2-7-7.2-0.8-14.5 0.1-21.4 2.1-6.9 2-13.5 5.4-19.1 9.9-2.8 2.3-5.4 4.8-7.7 7.6-2.3 2.8-4.2 5.9-5.8 9.2-0.4 0.9-0.1 1.9 0.8 2.3 0.9 0.4 1.9 0.1 2.4-0.8l0 0c1.5-3 3.4-5.8 5.5-8.4 2.1-2.6 4.6-5 7.2-7.1 5.3-4.2 11.4-7.4 17.8-9.5 6.5-2.1 13.3-3 20.1-2.5 6.8 0.5 13.5 2.3 19.4 5.7 0.5 0.3 1 0.1 1.3-0.3C89.9 54 89.8 53.4 89.3 53.1z" fill="#ffffff" data-fill-palette-color="quaternary"></path><path d="M14.1 31.5c-7.1 0-12.8 5.7-12.8 12.8 0 7.1 12.8 23.8 12.8 23.8S27 51.4 27 44.3C27 37.3 21.2 31.5 14.1 31.5zM14.1 51.9c-4.1 0-7.5-3.4-7.5-7.5s3.4-7.5 7.5-7.5 7.5 3.4 7.5 7.5S18.3 51.9 14.1 51.9z" fill="#ffffff" data-fill-palette-color="quaternary"></path><path d="M98.6 32.6c0-5.4-4.4-9.8-9.8-9.8-5.4 0-9.8 4.4-9.8 9.8 0 5.4 9.8 18.2 9.8 18.2S98.6 38.1 98.6 32.6zM83.1 32.6c0-3.2 2.6-5.7 5.7-5.7s5.7 2.6 5.7 5.7c0 3.2-2.6 5.7-5.7 5.7S83.1 35.8 83.1 32.6z" fill="#ffffff" data-fill-palette-color="quaternary"></path></g></svg></g></svg></g><g></g></svg></g></svg></g></svg></g></svg></g><defs></defs></svg><rect width="342.85155851775386" height="342.85155851775386" fill="none" stroke="none" visibility="hidden"></rect></g></svg></g></svg>