<svg xmlns="http://www.w3.org/2000/svg" version="1.1" xmlns:xlink="http://www.w3.org/1999/xlink" xmlns:svgjs="http://svgjs.dev/svgjs" width="1000" height="1000" viewBox="0 0 1000 1000"><rect width="1000" height="1000" fill="#0a1627"></rect><g transform="matrix(0.7,0,0,0.7,149.62658129261854,100.30020348425694)"><svg viewBox="0 0 245 280" data-background-color="#0a1627" preserveAspectRatio="xMidYMid meet" height="1142" width="1000" xmlns="http://www.w3.org/2000/svg" xmlns:xlink="http://www.w3.org/1999/xlink"><defs></defs><g id="tight-bounds" transform="matrix(1,0,0,1,0.13069654758351135,0.0000712729446377125)"><svg viewBox="0 0 244.738606904833 280" height="280" width="244.738606904833"><g><svg viewBox="0 0 278.2696 318.36206385818633" height="280" width="244.738606904833"><g><svg viewBox="0 0 278.2696 318.36206385818633" height="318.36206385818633" width="278.2696"><g><svg viewBox="0 0 278.2696 318.36206385818633" height="318.36206385818633" width="278.2696"><g><svg viewBox="0 0 278.2696 278.2696" height="278.2696" width="278.2696"><g transform="matrix(1,0,0,1,94.60025048138748,73.54602628064397)"><svg viewBox="0 0 89.06909903722507 131.17754743871208" height="131.17754743871208" width="89.06909903722507"><g><svg xmlns="http://www.w3.org/2000/svg" xmlns:xlink="http://www.w3.org/1999/xlink" version="1.1" x="0" y="0" viewBox="16.224 0 67.827 99.893" enable-background="new 0 0 100 100" xml:space="preserve" height="131.17754743871208" width="89.06909903722507" class="icon-yl-0" data-fill-palette-color="accent" id="yl-0"><g fill="#c1c1c1" data-fill-palette-color="accent"><path d="M55.076 41.137c-0.353-0.075-0.622-0.151-0.959-0.226V28.788c5.604 0.904 11.528 3.359 17.053 7.246l10.771-15.209c-7.531-6.043-16.577-9.502-27.824-10.184V0h-5.421v10.545c-17.882 0.476-28.812 10.728-28.812 24.818v0.226c0 15.819 12.516 20.545 28.812 24.305v12.77c-7.262-0.928-14.178-3.966-20.483-8.986L16.224 77.993c8.629 7.726 20.17 11.969 32.472 12.715v9.185h5.421v-9.074c18.032-0.483 29.934-9.811 29.934-25.254v-0.229C84.051 50.798 72.95 45.024 55.076 41.137zM41.645 33.594v-0.23c0-2.633 2.34-4.751 7.051-4.949v11.088C43.215 37.838 41.645 36.295 41.645 33.594zM62.294 67.666c0 3.189-2.875 5.132-8.177 5.299V61.289c6.389 1.856 8.177 3.53 8.177 6.155V67.666z" fill="#c1c1c1" data-fill-palette-color="accent"></path></g></svg></g></svg></g><path d="M19.69 86.322v0l0.257 1.082c-0.988 0.235-1.871 0.692-2.647 1.371-0.777 0.679-1.352 1.516-1.727 2.51v0c-0.607 1.614-0.556 3.204 0.153 4.771 0.708 1.573 1.868 2.664 3.483 3.271 1.614 0.607 3.206 0.553 4.775-0.163 1.573-0.708 2.664-1.868 3.271-3.482v0c0.374-0.995 0.49-2.004 0.347-3.03-0.143-1.025-0.508-1.952-1.096-2.78v0l0.941-0.62c0.688 0.98 1.116 2.073 1.283 3.279 0.161 1.203 0.023 2.387-0.415 3.55v0c-0.351 0.932-0.868 1.755-1.551 2.469-0.683 0.714-1.451 1.264-2.303 1.651-0.852 0.386-1.773 0.604-2.763 0.652-0.987 0.043-1.95-0.113-2.888-0.466-0.932-0.351-1.755-0.868-2.47-1.55-0.712-0.689-1.261-1.46-1.647-2.313-0.386-0.852-0.601-1.772-0.643-2.759-0.049-0.99 0.102-1.95 0.453-2.883v0c0.44-1.17 1.124-2.151 2.051-2.945 0.923-0.802 1.969-1.341 3.136-1.615zM19.144 84.102v0l0.246 1.11c-1.337 0.325-2.535 0.949-3.596 1.871-1.061 0.922-1.845 2.055-2.351 3.4v0c-0.544 1.445-0.689 2.912-0.435 4.4 0.254 1.488 0.857 2.818 1.808 3.991 0.951 1.172 2.15 2.03 3.595 2.574 1.445 0.544 2.912 0.689 4.399 0.435 1.488-0.254 2.818-0.857 3.991-1.808 1.172-0.951 2.03-2.15 2.574-3.595v0c0.506-1.345 0.666-2.717 0.478-4.116-0.196-1.395-0.691-2.66-1.485-3.794v0l0.929-0.647c0.909 1.285 1.47 2.717 1.682 4.297 0.212 1.58 0.031 3.133-0.543 4.659v0c-0.615 1.633-1.587 2.991-2.917 4.077-1.321 1.081-2.828 1.764-4.52 2.047-1.692 0.284-3.355 0.119-4.988-0.495-1.633-0.615-2.988-1.585-4.067-2.913-1.085-1.33-1.771-2.838-2.057-4.523-0.284-1.692-0.119-3.355 0.495-4.988v0c0.574-1.526 1.462-2.813 2.664-3.861 1.201-1.048 2.567-1.755 4.098-2.121zM18.635 81.896v0l0.24 1.098c-1.706 0.415-3.233 1.208-4.58 2.379-1.341 1.173-2.332 2.611-2.973 4.312v0c-0.516 1.37-0.742 2.777-0.679 4.222 0.061 1.451 0.369 2.796 0.925 4.033 0.562 1.24 1.369 2.358 2.422 3.355 1.051 1.003 2.258 1.761 3.622 2.273 1.37 0.516 2.777 0.742 4.223 0.679 1.449-0.055 2.793-0.363 4.033-0.924 1.24-0.562 2.361-1.368 3.363-2.419 1-1.045 1.758-2.252 2.274-3.622v0c0.645-1.714 0.843-3.454 0.593-5.219-0.243-1.763-0.87-3.363-1.878-4.799v0l0.959-0.614c1.111 1.582 1.797 3.347 2.056 5.295 0.26 1.947 0.036 3.859-0.67 5.736v0c-0.758 2.014-1.96 3.69-3.606 5.027-1.637 1.333-3.501 2.178-5.592 2.534-2.084 0.358-4.137 0.157-6.157-0.604-2.014-0.758-3.69-1.96-5.027-3.606-1.331-1.644-2.176-3.508-2.534-5.592-0.349-2.088-0.145-4.14 0.613-6.154v0c0.711-1.889 1.809-3.479 3.295-4.77 1.494-1.294 3.187-2.168 5.078-2.62zM18.082 79.696v0l0.236 1.106c-2.067 0.5-3.91 1.46-5.529 2.879-1.623 1.41-2.822 3.144-3.597 5.202v0c-0.622 1.651-0.894 3.352-0.817 5.102 0.075 1.756 0.454 3.385 1.139 4.886 0.676 1.504 1.65 2.864 2.922 4.077 1.265 1.212 2.723 2.128 4.375 2.75 1.651 0.622 3.355 0.895 5.111 0.821 1.75-0.077 3.378-0.457 4.885-1.139 1.498-0.679 2.854-1.654 4.069-2.925 1.212-1.265 2.128-2.723 2.75-4.375v0c0.775-2.058 1.015-4.157 0.72-6.296-0.292-2.145-1.05-4.088-2.274-5.826v0l0.969-0.61c1.311 1.886 2.123 3.988 2.436 6.305 0.313 2.318 0.05 4.593-0.791 6.826v0c-0.678 1.802-1.675 3.387-2.99 4.756-1.324 1.373-2.8 2.431-4.43 3.174-1.634 0.735-3.4 1.149-5.298 1.241-1.903 0.084-3.755-0.213-5.556-0.891-1.802-0.678-3.387-1.675-4.756-2.99-1.373-1.324-2.431-2.8-3.175-4.43-0.735-1.634-1.144-3.402-1.228-5.304-0.092-1.899 0.201-3.749 0.879-5.551v0c0.845-2.246 2.153-4.135 3.923-5.669 1.77-1.533 3.779-2.573 6.027-3.119zM28.359 70.296c0.333 1.693 1.216 3.018 2.65 3.975 1.434 0.957 2.997 1.265 4.687 0.923 1.693-0.333 3.018-1.216 3.976-2.65 0.957-1.434 1.265-2.997 0.923-4.687-0.333-1.693-1.216-3.018-2.65-3.975-1.434-0.957-2.997-1.265-4.687-0.924-1.687 0.336-3.009 1.222-3.967 2.656-0.957 1.434-1.268 2.995-0.932 4.682zM33.088 76.322c-0.971-0.182-1.874-0.552-2.708-1.109-0.828-0.553-1.513-1.243-2.054-2.07-0.537-0.833-0.897-1.708-1.08-2.626-0.183-0.918-0.183-1.862 0-2.833 0.177-0.975 0.542-1.877 1.094-2.705 0.553-0.828 1.246-1.511 2.079-2.048 0.827-0.541 1.7-0.903 2.617-1.085 0.918-0.183 1.864-0.186 2.839-0.01 0.971 0.182 1.871 0.55 2.699 1.103 0.834 0.557 1.521 1.249 2.062 2.076 0.537 0.833 0.897 1.708 1.08 2.626 0.183 0.918 0.183 1.862 0.001 2.833-0.182 0.971-0.55 1.871-1.103 2.699-0.553 0.828-1.243 1.513-2.07 2.054-0.827 0.541-1.7 0.903-2.617 1.085-0.918 0.183-1.864 0.186-2.839 0.01zM26.833 72.833c0.661 1.357 1.633 2.465 2.918 3.322 1.284 0.857 2.68 1.331 4.187 1.421 1.507 0.09 2.939-0.195 4.296-0.856 1.357-0.661 2.465-1.633 3.322-2.918 0.857-1.284 1.331-2.68 1.421-4.186 0.09-1.507-0.195-2.939-0.856-4.297-0.661-1.357-1.633-2.465-2.918-3.322-1.284-0.857-2.68-1.331-4.186-1.421-1.507-0.09-2.939 0.195-4.297 0.857-1.357 0.661-2.465 1.633-3.322 2.917-0.857 1.284-1.331 2.68-1.421 4.187-0.09 1.507 0.195 2.939 0.856 4.296zM33.867 78.711c-1.713-0.107-3.295-0.644-4.745-1.613-1.451-0.969-2.551-2.222-3.301-3.759-0.755-1.541-1.081-3.165-0.978-4.872 0.107-1.713 0.644-3.295 1.613-4.746 0.969-1.451 2.223-2.554 3.764-3.309 1.537-0.75 3.162-1.071 4.875-0.965 1.707 0.103 3.286 0.639 4.737 1.608 1.451 0.969 2.554 2.223 3.31 3.764 0.755 1.541 1.079 3.163 0.97 4.867-0.107 1.713-0.644 3.295-1.614 4.745-0.969 1.451-2.223 2.554-3.764 3.31-1.532 0.753-3.154 1.077-4.867 0.97zM25.481 75.004c0.796 1.215 1.8 2.227 3.012 3.036 1.217 0.813 2.537 1.352 3.958 1.618 1.423 0.275 2.803 0.28 4.138 0.014 1.335-0.266 2.61-0.797 3.824-1.594 1.211-0.791 2.223-1.795 3.036-3.012 0.813-1.217 1.352-2.537 1.618-3.958 0.27-1.427 0.272-2.808 0.006-4.144-0.266-1.335-0.797-2.61-1.594-3.824-0.794-1.205-1.8-2.215-3.018-3.027-1.212-0.809-2.529-1.351-3.953-1.627-1.427-0.27-2.808-0.272-4.143-0.005-1.329 0.27-2.601 0.803-3.816 1.599-1.211 0.791-2.223 1.795-3.036 3.012-0.813 1.217-1.352 2.537-1.618 3.959-0.27 1.427-0.274 2.806-0.014 4.137 0.266 1.335 0.799 2.607 1.6 3.816zM33.718 80.974c-2.111-0.124-4.065-0.785-5.86-1.984-1.79-1.195-3.15-2.746-4.079-4.651-0.924-1.903-1.324-3.91-1.2-6.021 0.133-2.113 0.797-4.065 1.992-5.855 1.195-1.79 2.743-3.151 4.644-4.085 1.903-0.924 3.91-1.324 6.021-1.2 2.117 0.127 4.07 0.789 5.86 1.984 1.796 1.199 3.155 2.749 4.079 4.652 0.929 1.906 1.329 3.913 1.2 6.021-0.127 2.117-0.789 4.07-1.984 5.86-1.195 1.79-2.746 3.15-4.652 4.079-1.897 0.927-3.904 1.328-6.021 1.2zM23.592 76.263c0.957 1.467 2.17 2.69 3.637 3.67 1.468 0.98 3.065 1.632 4.793 1.958 1.722 0.322 3.394 0.321 5.016-0.003 1.613-0.322 3.155-0.964 4.625-1.926 1.467-0.957 2.69-2.17 3.67-3.638 0.98-1.468 1.632-3.065 1.958-4.792 0.322-1.722 0.322-3.389 0.001-5.003-0.323-1.622-0.964-3.167-1.921-4.634-0.963-1.471-2.178-2.696-3.646-3.675-1.468-0.98-3.062-1.631-4.784-1.953-1.727-0.326-3.4-0.325-5.016 0.003-1.619 0.318-3.161 0.955-4.629 1.913-1.471 0.963-2.696 2.178-3.675 3.645-0.98 1.468-1.631 3.062-1.953 4.785-0.326 1.727-0.325 3.4 0.003 5.016 0.318 1.619 0.958 3.163 1.921 4.634zM31.81 83.003c-1.872-0.35-3.609-1.059-5.21-2.128-1.601-1.069-2.919-2.399-3.954-3.99-1.037-1.6-1.733-3.279-2.088-5.034-0.345-1.758-0.343-3.572 0.006-5.445 0.34-1.87 1.045-3.606 2.114-5.207 1.069-1.601 2.403-2.92 4.004-3.957 1.591-1.035 3.265-1.73 5.021-2.085 1.758-0.345 3.574-0.346 5.45-0.002 1.867 0.346 3.6 1.053 5.201 2.123 1.601 1.069 2.922 2.401 3.963 3.995 1.032 1.597 1.725 3.273 2.079 5.029 0.345 1.758 0.348 3.571 0.008 5.442-0.35 1.872-1.059 3.609-2.128 5.209-1.069 1.601-2.399 2.919-3.99 3.954-1.6 1.037-3.279 1.733-5.035 2.088-1.758 0.345-3.571 0.348-5.441 0.008zM58.833 44.055v0l-9.966-10.708 0.837-0.778 9.965 10.708c1.088 1.169 1.557 2.6 1.407 4.292-0.151 1.692-0.872 3.14-2.164 4.342-1.292 1.202-2.787 1.818-4.485 1.846-1.694 0.024-3.085-0.548-4.174-1.717v0l-9.965-10.708 0.829-0.772 9.966 10.708c0.874 0.939 2.003 1.391 3.384 1.356 1.382-0.035 2.607-0.55 3.674-1.542 1.071-0.997 1.675-2.184 1.809-3.56 0.13-1.372-0.243-2.527-1.117-3.467zM60.499 42.505v0l-9.966-10.708 0.829-0.772 9.966 10.708c0.747 0.802 1.291 1.725 1.631 2.768 0.336 1.038 0.466 2.091 0.391 3.157-0.076 1.057-0.359 2.106-0.851 3.147-0.501 1.041-1.182 1.963-2.043 2.765-0.861 0.801-1.827 1.412-2.896 1.832-1.079 0.42-2.148 0.63-3.208 0.63-1.064-0.005-2.104-0.21-3.12-0.616-1.016-0.415-1.898-1.023-2.645-1.826v0l-9.965-10.707 0.829-0.772 9.966 10.707c0.856 0.92 1.896 1.536 3.118 1.85 1.223 0.323 2.469 0.313 3.74-0.028 1.275-0.337 2.411-0.97 3.409-1.9 1.003-0.933 1.716-2.022 2.139-3.264 0.432-1.242 0.531-2.485 0.297-3.728-0.225-1.242-0.765-2.324-1.621-3.243zM62.157 40.961v0l-9.965-10.708 0.829-0.772 9.966 10.708c0.956 1.027 1.656 2.207 2.1 3.537 0.444 1.331 0.623 2.666 0.537 4.006-0.091 1.345-0.444 2.677-1.059 3.999-0.62 1.326-1.473 2.494-2.559 3.504-1.086 1.011-2.31 1.776-3.671 2.295-1.367 0.523-2.721 0.78-4.064 0.769-1.348-0.006-2.669-0.278-3.965-0.816-1.295-0.538-2.421-1.321-3.377-2.349v0l-9.966-10.708 0.829-0.772 9.966 10.708c1.134 1.218 2.504 2.043 4.111 2.474 1.611 0.436 3.25 0.441 4.915 0.014 1.665-0.418 3.149-1.232 4.451-2.444 1.301-1.211 2.22-2.632 2.756-4.264 0.546-1.631 0.659-3.266 0.339-4.903-0.315-1.633-1.039-3.059-2.173-4.278zM63.823 39.411v0l-9.965-10.708 0.829-0.772 9.965 10.708c1.548 1.664 2.547 3.61 2.997 5.839 0.45 2.229 0.316 4.45-0.402 6.661-0.718 2.211-1.95 4.13-3.697 5.755-1.747 1.626-3.749 2.717-6.005 3.275-2.257 0.557-4.481 0.532-6.673-0.077-2.191-0.608-4.061-1.744-5.609-3.408v0l-9.966-10.707 0.837-0.779 9.965 10.708c1.056 1.135 2.302 2.003 3.738 2.603 1.435 0.6 2.895 0.908 4.379 0.923 1.494 0.016 2.996-0.264 4.506-0.838 1.51-0.575 2.862-1.418 4.056-2.529 1.194-1.111 2.132-2.399 2.813-3.865 0.682-1.465 1.068-2.943 1.16-4.434 0.096-1.486-0.104-2.967-0.6-4.441-0.496-1.474-1.272-2.779-2.328-3.914zM75.952 15.279l6.745 11.745-1.916-1.061-5.811-10.12zM77.925 14.145l8.598 14.971-1.939-1.082-7.65-13.319zM79.89 13.017l10.476 18.24-1.941-1.105-9.517-16.571zM78.782 43.76l-6.746-11.746 1.93 1.065 5.807 10.112zM76.817 44.888l-8.598-14.971 1.936 1.096 7.644 13.311zM74.852 46.017l-10.47-18.232 1.936 1.097 9.516 16.57zM89.101 37.833l-26.912-14.65 1.148-0.659 26.921 14.645zM91.405 36.51l-26.894-14.66 1.165-0.669 26.903 14.655zM93.701 35.192l-26.878-14.671 1.148-0.659 24.985 13.63-12.083-21.039 0.982-0.564 13.002 22.639c0 0-0.385 0.221-1.156 0.664zM86.798 39.156l-25.02-13.61 12.083 21.04-0.983 0.564-13.001-22.639c0 0 0.391-0.225 1.173-0.674v0l26.878 14.67zM103.275 5.554l-16.112 5.496-0.369-1.082 16.112-5.496zM104.007 7.698l-16.112 5.496-0.366-1.072 16.112-5.496zM92.925 13.872l-4.299 1.467-0.365-1.073 16.112-5.496 0.365 1.073-4.298 1.466 6.597 19.338-1.073 0.366-6.596-19.338-1.072 0.365 6.596 19.339-1.072 0.366-6.597-19.339-1.081 0.369 6.596 19.339-1.072 0.365-6.597-19.338-1.072 0.366 6.597 19.338-1.073 0.366zM122.122 10.256c-1.091 1.336-1.547 2.862-1.369 4.577 0.178 1.715 0.938 3.115 2.281 4.198 1.336 1.091 2.862 1.547 4.577 1.369 1.715-0.178 3.115-0.938 4.198-2.28 1.091-1.336 1.547-2.862 1.369-4.578-0.178-1.715-0.938-3.115-2.28-4.198-1.336-1.084-2.861-1.537-4.576-1.359-1.715 0.178-3.115 0.935-4.2 2.271zM120.501 17.742c-0.479-0.864-0.771-1.795-0.875-2.792-0.103-0.991-0.008-1.958 0.283-2.902 0.298-0.945 0.742-1.781 1.333-2.507 0.59-0.727 1.317-1.329 2.181-1.809 0.863-0.486 1.79-0.781 2.781-0.884 0.991-0.103 1.958-0.005 2.903 0.293 0.944 0.292 1.78 0.732 2.506 1.323 0.727 0.59 1.333 1.316 1.819 2.179 0.479 0.864 0.771 1.791 0.873 2.782 0.104 0.997 0.009 1.968-0.282 2.913-0.298 0.945-0.742 1.781-1.332 2.507-0.59 0.727-1.317 1.329-2.181 1.809-0.864 0.479-1.791 0.771-2.782 0.873-0.991 0.103-1.958 0.008-2.902-0.283-0.944-0.292-1.78-0.732-2.506-1.322-0.727-0.59-1.333-1.316-1.819-2.18zM119.195 10.701c-0.623 1.375-0.855 2.83-0.696 4.366 0.159 1.536 0.685 2.912 1.578 4.13 0.892 1.218 2.026 2.138 3.402 2.761 1.375 0.623 2.83 0.855 4.366 0.696 1.536-0.159 2.912-0.685 4.13-1.578 1.218-0.892 2.138-2.026 2.761-3.401 0.623-1.375 0.855-2.83 0.696-4.367-0.159-1.536-0.685-2.912-1.578-4.13-0.892-1.218-2.026-2.138-3.401-2.761-1.375-0.623-2.83-0.855-4.366-0.696-1.536 0.159-2.912 0.685-4.131 1.578-1.218 0.892-2.138 2.026-2.761 3.402zM119.159 19.867c-1.011-1.387-1.606-2.948-1.786-4.683-0.18-1.735 0.082-3.382 0.787-4.94 0.704-1.565 1.747-2.852 3.127-3.863 1.387-1.011 2.948-1.606 4.683-1.787 1.735-0.18 3.385 0.082 4.95 0.787 1.558 0.705 2.843 1.751 3.853 3.137 1.01 1.38 1.605 2.938 1.786 4.673 0.18 1.735-0.082 3.385-0.786 4.951-0.704 1.565-1.747 2.849-3.128 3.852-1.387 1.011-2.948 1.606-4.683 1.787-1.735 0.18-3.385-0.082-4.95-0.786-1.558-0.698-2.842-1.741-3.853-3.128zM116.66 11.044c-0.427 1.388-0.565 2.807-0.414 4.257 0.151 1.456 0.578 2.816 1.28 4.08 0.697 1.272 1.573 2.336 2.63 3.194 1.057 0.858 2.279 1.5 3.668 1.928 1.382 0.428 2.8 0.566 4.256 0.415 1.456-0.151 2.816-0.578 4.08-1.281 1.271-0.703 2.335-1.583 3.194-2.64 0.858-1.057 1.5-2.279 1.927-3.667 0.421-1.381 0.556-2.799 0.405-4.256-0.15-1.449-0.574-2.81-1.271-4.081-0.703-1.271-1.583-2.335-2.64-3.193-1.056-0.851-2.278-1.49-3.666-1.918-1.382-0.428-2.8-0.566-4.257-0.414-1.456 0.151-2.816 0.578-4.08 1.28-1.271 0.703-2.336 1.58-3.194 2.63-0.858 1.057-1.497 2.279-1.918 3.666zM117.322 21.197c-1.252-1.704-1.99-3.63-2.213-5.778-0.222-2.141 0.104-4.177 0.978-6.109 0.875-1.925 2.165-3.514 3.87-4.766 1.712-1.246 3.638-1.98 5.778-2.203 2.141-0.222 4.177 0.101 6.108 0.968 1.925 0.875 3.514 2.165 4.767 3.87 1.253 1.711 1.99 3.637 2.213 5.777 0.223 2.147-0.103 4.184-0.979 6.109-0.875 1.932-2.164 3.521-3.869 4.767-1.711 1.253-3.637 1.99-5.778 2.212-2.141 0.222-4.177-0.104-6.109-0.978-1.925-0.869-3.513-2.158-4.766-3.869zM114.486 10.393c-0.518 1.673-0.686 3.387-0.504 5.143 0.182 1.755 0.699 3.401 1.551 4.939 0.851 1.531 1.919 2.818 3.203 3.861 1.277 1.037 2.755 1.814 4.435 2.331 1.673 0.518 3.387 0.686 5.143 0.504 1.755-0.182 3.401-0.699 4.939-1.551 1.531-0.851 2.815-1.915 3.852-3.192 1.043-1.284 1.823-2.763 2.341-4.436 0.518-1.68 0.685-3.397 0.503-5.153-0.182-1.755-0.699-3.398-1.55-4.929-0.852-1.538-1.919-2.825-3.203-3.86-1.278-1.043-2.753-1.824-4.426-2.343-1.68-0.518-3.397-0.685-5.153-0.503-1.755 0.182-3.398 0.699-4.929 1.55-1.538 0.852-2.825 1.919-3.86 3.203-1.043 1.278-1.824 2.756-2.342 4.436zM114.542 21.022c-0.925-1.664-1.488-3.454-1.687-5.369-0.199-1.915-0.016-3.778 0.549-5.591 0.57-1.82 1.418-3.427 2.543-4.82 1.133-1.388 2.531-2.544 4.196-3.47 1.657-0.931 3.443-1.497 5.357-1.695 1.915-0.199 3.782-0.013 5.602 0.557 1.812 0.564 3.416 1.409 4.809 2.535 1.388 1.133 2.548 2.531 3.48 4.195 0.925 1.658 1.487 3.444 1.685 5.358 0.199 1.915 0.016 3.782-0.547 5.601-0.571 1.813-1.419 3.417-2.545 4.81-1.133 1.388-2.528 2.547-4.184 3.479-1.664 0.925-3.454 1.488-5.369 1.686-1.915 0.199-3.778 0.016-5.591-0.548-1.82-0.57-3.427-1.418-4.82-2.544-1.388-1.133-2.547-2.528-3.478-4.184zM151.219 17.742l-0.911 9.038-1.138-0.115 2.62-25.975 12.499 1.261-0.115 1.137-11.361-1.146-0.114 1.127 11.362 1.146-0.114 1.127-11.362-1.146-0.113 1.127 11.361 1.146-0.113 1.127-11.362-1.145-0.57 5.646 10.833 1.092-0.114 1.137-10.833-1.092-0.114 1.127 10.833 1.092-0.114 1.128-10.833-1.093-0.113 1.127 10.833 1.093-0.114 1.127zM150.663 0.576l-2.62 25.976-1.127-0.114 2.62-25.975zM148.409 0.349l-2.62 25.975-1.127-0.114 2.619-25.975zM146.144 0.121l-2.62 25.975-1.127-0.114 2.62-25.975zM182.808 35.081l3.118-9 1.77-1.647-3.818 11.018zM184.958 35.826l4.543-13.111 1.769-1.647-5.241 15.129zM187.099 36.568l5.944-17.156 1.78-1.676-6.653 19.203zM196.433 12.172l-13.232 12.403-0.228-1.331 12.256-11.489zM194.007 11.332l-11.236 10.473-0.235-1.344 10.249-9.553zM171.487 31.159l3.778-10.904 0.378 2.401-3.076 8.877zM169.346 30.417l5.193-14.987 0.368 2.398-4.49 12.96zM167.205 29.675l6.604-19.06 0.365 2.407-5.898 17.024zM174.815 4.682l3.287 21.564-1.213-0.42-2.925-19.147-7.839 22.622-1.07-0.371 8.547-24.668zM177.249 5.525l3.278 21.561-1.222-0.423-3.278-21.561zM189.24 37.31l7.838-22.622-14.135 13.235-1.222-0.423-3.259-21.555 1.203 0.417 3.075 20.218 14.905-13.988 1.222 0.424-8.547 24.668zM207.562 28.454c-1.689 0.353-3.003 1.252-3.943 2.697-0.94 1.446-1.229 3.012-0.867 4.699 0.353 1.689 1.252 3.003 2.698 3.943 1.446 0.94 3.012 1.229 4.698 0.867 1.689-0.353 3.003-1.252 3.943-2.698 0.94-1.446 1.229-3.012 0.867-4.698-0.357-1.683-1.258-2.995-2.703-3.935-1.446-0.94-3.01-1.232-4.693-0.875zM201.594 33.255c0.171-0.973 0.529-1.88 1.076-2.721 0.543-0.835 1.225-1.528 2.045-2.078 0.826-0.547 1.697-0.917 2.612-1.112 0.915-0.194 1.86-0.206 2.834-0.035 0.977 0.165 1.883 0.519 2.717 1.062 0.835 0.543 1.526 1.228 2.073 2.054 0.551 0.821 0.923 1.689 1.117 2.604 0.194 0.915 0.208 1.862 0.043 2.839-0.171 0.973-0.527 1.877-1.07 2.712-0.547 0.84-1.23 1.536-2.051 2.087-0.826 0.547-1.697 0.917-2.612 1.111-0.915 0.194-1.86 0.206-2.833 0.035-0.973-0.171-1.877-0.527-2.713-1.07-0.835-0.543-1.528-1.225-2.078-2.046-0.551-0.821-0.923-1.689-1.117-2.604-0.194-0.915-0.208-1.862-0.043-2.838zM205.006 26.959c-1.349 0.677-2.445 1.663-3.286 2.957-0.842 1.294-1.299 2.695-1.371 4.204-0.072 1.508 0.231 2.937 0.908 4.286 0.677 1.349 1.663 2.445 2.958 3.286 1.294 0.842 2.695 1.299 4.203 1.371 1.508 0.072 2.937-0.231 4.286-0.908 1.349-0.677 2.445-1.663 3.287-2.957 0.842-1.294 1.299-2.695 1.37-4.204 0.072-1.508-0.231-2.937-0.908-4.286-0.677-1.349-1.663-2.445-2.957-3.287-1.294-0.842-2.695-1.299-4.203-1.37-1.508-0.072-2.937 0.231-4.287 0.908zM199.214 34.063c0.086-1.714 0.605-3.302 1.556-4.765 0.951-1.462 2.191-2.578 3.719-3.345 1.532-0.774 3.152-1.119 4.86-1.037 1.714 0.086 3.302 0.605 4.765 1.556 1.462 0.951 2.58 2.193 3.354 3.724 0.768 1.528 1.109 3.149 1.023 4.863-0.083 1.708-0.599 3.294-1.55 4.756-0.951 1.462-2.193 2.58-3.725 3.354-1.532 0.774-3.15 1.117-4.855 1.029-1.714-0.086-3.302-0.605-4.764-1.556-1.462-0.951-2.58-2.193-3.354-3.724-0.772-1.523-1.115-3.141-1.029-4.855zM202.82 25.632c-1.205 0.811-2.205 1.827-3 3.049-0.798 1.227-1.322 2.553-1.57 3.977-0.258 1.427-0.246 2.806 0.036 4.138 0.282 1.332 0.829 2.6 1.639 3.805 0.805 1.201 1.821 2.201 3.049 2.999 1.227 0.798 2.553 1.322 3.978 1.571 1.43 0.253 2.811 0.238 4.142-0.045 1.332-0.282 2.6-0.829 3.805-1.639 1.196-0.809 2.193-1.827 2.991-3.054 0.794-1.221 1.321-2.546 1.579-3.972 0.253-1.43 0.238-2.811-0.044-4.143-0.286-1.326-0.834-2.592-1.645-3.797-0.805-1.201-1.821-2.201-3.049-2.999-1.227-0.798-2.553-1.322-3.977-1.571-1.43-0.253-2.81-0.241-4.138 0.036-1.332 0.282-2.597 0.83-3.796 1.645zM196.949 33.941c0.098-2.113 0.736-4.074 1.913-5.883 1.173-1.804 2.708-3.182 4.603-4.135 1.891-0.947 3.893-1.371 6.006-1.272 2.115 0.108 4.074 0.748 5.878 1.921 1.804 1.173 3.184 2.705 4.14 4.594 0.947 1.891 1.371 3.893 1.272 6.006-0.102 2.118-0.74 4.08-1.913 5.884-1.177 1.81-2.711 3.188-4.602 4.135-1.895 0.952-3.897 1.376-6.006 1.272-2.118-0.102-4.08-0.74-5.884-1.913-1.804-1.173-3.182-2.708-4.134-4.603-0.95-1.886-1.374-3.888-1.273-6.006zM201.539 23.759c-1.455 0.975-2.664 2.202-3.626 3.681-0.962 1.479-1.595 3.084-1.901 4.816-0.301 1.726-0.28 3.398 0.063 5.016 0.341 1.609 1.002 3.143 1.982 4.602 0.975 1.455 2.202 2.664 3.681 3.626 1.479 0.962 3.084 1.595 4.816 1.9 1.726 0.301 3.393 0.281 5.002-0.06 1.618-0.343 3.155-1.002 4.611-1.977 1.459-0.981 2.669-2.211 3.631-3.689 0.962-1.479 1.594-3.082 1.895-4.808 0.305-1.731 0.284-3.403-0.063-5.016-0.337-1.615-0.993-3.15-1.968-4.604-0.981-1.459-2.211-2.669-3.69-3.632-1.479-0.962-3.082-1.594-4.807-1.895-1.731-0.305-3.403-0.284-5.016 0.063-1.615 0.337-3.151 0.996-4.61 1.977zM194.898 32.057c0.327-1.876 1.016-3.621 2.065-5.235 1.049-1.614 2.364-2.948 3.942-4.002 1.588-1.056 3.258-1.772 5.009-2.148 1.753-0.367 3.568-0.386 5.444-0.059 1.874 0.318 3.618 1.002 5.232 2.051 1.614 1.049 2.949 2.368 4.005 3.956 1.054 1.579 1.769 3.244 2.145 4.995 0.367 1.753 0.389 3.57 0.067 5.45-0.324 1.871-1.01 3.613-2.059 5.226-1.049 1.614-2.365 2.95-3.948 4.011-1.584 1.051-3.252 1.764-5.003 2.139-1.753 0.367-3.567 0.391-5.441 0.073-1.876-0.327-3.621-1.016-5.235-2.065-1.614-1.049-2.948-2.364-4.002-3.942-1.056-1.588-1.772-3.258-2.148-5.009-0.367-1.753-0.391-3.567-0.073-5.441zM244.883 48.526l-9.762 9.389 0.566-2.116 8.411-8.09zM246.461 50.166l-12.443 11.968 0.58-2.144 11.07-10.647zM248.031 51.799l-15.16 14.581 0.602-2.15 13.773-13.247zM217.935 58.17l9.762-9.39-0.566 2.131-8.403 8.082zM216.365 56.537l12.442-11.968-0.594 2.144-11.063 10.64zM214.794 54.904l15.152-14.575-0.594 2.144-13.773 13.247zM226.185 66.747l7.696-29.659 0.917 0.953-7.689 29.667zM228.027 68.662l7.71-29.645 0.931 0.968-7.703 29.652zM229.862 70.569l7.723-29.63 0.918 0.954-7.173 27.542 17.487-16.819 0.785 0.816-18.816 18.098c0 0-0.308-0.32-0.924-0.961zM224.343 64.832l7.145-27.571-17.486 16.819-0.786-0.817 18.816-18.098c0 0 0.313 0.325 0.939 0.976v0l-7.724 29.63zM256.035 63.142l-22.1 13.899-0.603-0.959 22.099-13.9zM254.828 61.223l-22.099 13.9-0.603-0.959 22.099-13.9zM253.617 59.297l-22.1 13.899-0.603-0.959 22.099-13.899zM243.795 73.528l-3.845 2.418 6.427 10.218-0.959 0.603-6.427-10.218-0.959 0.604 6.427 10.218-0.968 0.608-6.426-10.218-0.959 0.603 6.426 10.218-0.959 0.603-7.035-11.185 22.1-13.9 7.035 11.186-0.968 0.608-6.426-10.218-0.959 0.604 6.426 10.218-0.959 0.603-6.426-10.218-0.959 0.603 6.426 10.218-0.959 0.603-6.426-10.218-3.845 2.418 3.294 5.236-0.959 0.604-3.294-5.237-0.967 0.609 3.293 5.236-0.959 0.603-3.293-5.236-0.959 0.603 3.293 5.236-0.959 0.604zM266.857 82.838l-9.918 10.432-1.371-0.08 10.883-11.421zM267.66 84.956l-7.994 8.491-1.369-0.102 8.962-9.448zM268.464 87.075l-6.078 6.563-1.365-0.094 7.041-7.528zM244.958 98.716l8.221-3.119 19.101 1.536 0.402 1.059-19.101-1.535-8.221 3.118zM245.762 100.835l8.221-3.119 19.101 1.535 0.402 1.06-19.102-1.536-8.22 3.119zM246.565 102.953l8.221-3.119 19.101 1.536 0.406 1.069-19.101-1.536-8.221 3.119zM266.05 80.71l-12.351 12.867 17.774 1.428 0.402 1.059-19.102-1.535-8.22 3.119-0.402-1.06 8.221-3.118 13.276-13.819zM30.612 191.227v0l-0.906-0.644c0.588-0.828 0.95-1.754 1.087-2.777 0.136-1.023 0.017-2.031-0.357-3.026v0c-0.607-1.614-1.695-2.776-3.262-3.485-1.569-0.716-3.161-0.771-4.775-0.163-1.614 0.607-2.775 1.698-3.482 3.271-0.716 1.569-0.771 3.161-0.163 4.774v0c0.374 0.995 0.953 1.83 1.736 2.507 0.783 0.676 1.669 1.132 2.657 1.367v0l-0.298 1.087c-1.164-0.283-2.206-0.823-3.127-1.619-0.915-0.798-1.591-1.779-2.029-2.942v0c-0.351-0.932-0.505-1.892-0.462-2.879 0.043-0.987 0.257-1.907 0.643-2.76 0.386-0.852 0.935-1.623 1.647-2.312 0.714-0.683 1.54-1.201 2.479-1.555 0.932-0.351 1.892-0.505 2.879-0.462 0.99 0.049 1.911 0.266 2.763 0.652 0.852 0.386 1.62 0.936 2.303 1.651 0.689 0.712 1.209 1.534 1.56 2.466v0c0.44 1.17 0.574 2.359 0.4 3.567-0.165 1.212-0.596 2.306-1.293 3.282zM32.487 192.535v0l-0.917-0.672c0.79-1.126 1.28-2.385 1.47-3.778 0.19-1.393 0.032-2.761-0.474-4.106v0c-0.544-1.445-1.402-2.643-2.575-3.595-1.172-0.951-2.502-1.554-3.99-1.808-1.488-0.254-2.955-0.109-4.4 0.435-1.445 0.544-2.643 1.402-3.595 2.574-0.951 1.172-1.554 2.502-1.808 3.991-0.254 1.488-0.109 2.955 0.435 4.4v0c0.506 1.345 1.291 2.481 2.355 3.409 1.067 0.919 2.274 1.544 3.618 1.873v0l-0.272 1.099c-1.531-0.367-2.897-1.074-4.097-2.121-1.201-1.048-2.089-2.335-2.664-3.861v0c-0.615-1.633-0.78-3.295-0.496-4.988 0.28-1.684 0.963-3.191 2.048-4.52 1.085-1.33 2.444-2.302 4.077-2.916 1.633-0.615 3.292-0.778 4.978-0.492 1.692 0.284 3.202 0.966 4.53 2.044 1.33 1.085 2.302 2.444 2.916 4.077v0c0.574 1.526 0.756 3.079 0.543 4.659-0.212 1.58-0.773 3.012-1.682 4.296zM34.324 193.858v0l-0.905-0.667c1.009-1.437 1.634-3.04 1.875-4.808 0.235-1.767 0.032-3.501-0.608-5.202v0c-0.516-1.37-1.274-2.577-2.274-3.622-1.003-1.051-2.121-1.858-3.354-2.423-1.24-0.562-2.584-0.87-4.033-0.924-1.451-0.061-2.859 0.165-4.222 0.678-1.37 0.516-2.577 1.274-3.622 2.274-1.053 0.996-1.861 2.114-2.423 3.355-0.562 1.24-0.873 2.585-0.934 4.036-0.063 1.445 0.163 2.852 0.679 4.222v0c0.645 1.714 1.644 3.152 2.995 4.315 1.345 1.165 2.871 1.955 4.577 2.369v0l-0.316 1.094c-1.879-0.457-3.558-1.332-5.038-2.624-1.479-1.293-2.572-2.878-3.278-4.755v0c-0.758-2.014-0.959-4.067-0.604-6.157 0.352-2.082 1.196-3.946 2.534-5.592 1.331-1.644 3.007-2.846 5.027-3.606 2.014-0.758 4.067-0.959 6.157-0.604 2.084 0.358 3.948 1.203 5.593 2.534 1.64 1.34 2.839 3.017 3.596 5.03v0c0.711 1.889 0.934 3.809 0.668 5.759-0.27 1.958-0.967 3.731-2.09 5.318zM36.191 195.148v0l-0.908-0.676c1.224-1.739 1.977-3.676 2.259-5.81 0.291-2.131 0.049-4.225-0.726-6.283v0c-0.622-1.651-1.538-3.11-2.75-4.375-1.214-1.271-2.573-2.245-4.078-2.921-1.5-0.685-3.129-1.065-4.885-1.14-1.75-0.077-3.451 0.195-5.102 0.817-1.651 0.622-3.113 1.539-4.384 2.754-1.265 1.212-2.239 2.571-2.922 4.078-0.679 1.498-1.055 3.125-1.13 4.881-0.077 1.75 0.195 3.451 0.818 5.103v0c0.775 2.058 1.978 3.794 3.61 5.208 1.634 1.42 3.485 2.381 5.551 2.881v0l-0.326 1.097c-2.229-0.553-4.226-1.598-5.99-3.134-1.764-1.536-3.066-3.42-3.906-5.653v0c-0.678-1.802-0.974-3.651-0.888-5.547 0.09-1.905 0.502-3.674 1.238-5.308 0.744-1.63 1.799-3.105 3.165-4.426 1.375-1.317 2.964-2.315 4.765-2.994 1.802-0.678 3.651-0.974 5.547-0.888 1.905 0.09 3.674 0.502 5.307 1.237 1.63 0.744 3.103 1.803 4.421 3.179 1.321 1.367 2.321 2.951 2.999 4.752v0c0.845 2.246 1.108 4.528 0.789 6.848-0.319 2.32-1.144 4.426-2.474 6.32zM38.532 204.572c-1.691-0.342-3.253-0.034-4.688 0.924-1.434 0.957-2.318 2.283-2.65 3.975-0.342 1.691-0.034 3.253 0.923 4.688 0.957 1.434 2.283 2.318 3.976 2.65 1.691 0.342 3.253 0.034 4.687-0.924 1.434-0.957 2.318-2.283 2.65-3.975 0.336-1.687 0.026-3.248-0.931-4.682-0.957-1.434-2.28-2.319-3.967-2.656zM31.153 206.629c0.541-0.827 1.228-1.519 2.062-2.075 0.828-0.553 1.728-0.921 2.699-1.103 0.975-0.177 1.921-0.174 2.839 0.009 0.918 0.183 1.79 0.545 2.618 1.085 0.833 0.537 1.526 1.22 2.078 2.048 0.553 0.828 0.918 1.73 1.095 2.705 0.182 0.971 0.182 1.916-0.001 2.834-0.183 0.918-0.543 1.793-1.08 2.625-0.541 0.827-1.225 1.517-2.054 2.07-0.834 0.557-1.736 0.926-2.707 1.109-0.975 0.177-1.921 0.174-2.839-0.009-0.918-0.183-1.79-0.545-2.618-1.086-0.827-0.541-1.517-1.225-2.07-2.053-0.553-0.828-0.921-1.728-1.103-2.7-0.182-0.971-0.182-1.916 0.001-2.833 0.183-0.918 0.543-1.793 1.08-2.626zM36.773 202.19c-1.507 0.09-2.903 0.564-4.187 1.421-1.284 0.857-2.257 1.965-2.918 3.322-0.661 1.357-0.946 2.79-0.856 4.297 0.09 1.507 0.564 2.903 1.421 4.187 0.857 1.284 1.965 2.257 3.322 2.917 1.357 0.661 2.79 0.946 4.297 0.857 1.507-0.09 2.903-0.564 4.186-1.421 1.284-0.857 2.257-1.965 2.918-3.322 0.661-1.357 0.946-2.79 0.856-4.297-0.09-1.507-0.564-2.903-1.421-4.187-0.857-1.284-1.965-2.257-3.322-2.917-1.357-0.661-2.79-0.946-4.296-0.857zM28.648 206.434c0.755-1.541 1.858-2.796 3.309-3.765 1.451-0.969 3.03-1.504 4.737-1.607 1.713-0.107 3.338 0.215 4.875 0.964 1.541 0.755 2.796 1.858 3.765 3.309 0.969 1.451 1.506 3.033 1.613 4.746 0.103 1.707-0.223 3.331-0.979 4.872-0.75 1.537-1.85 2.79-3.301 3.759-1.451 0.969-3.033 1.506-4.745 1.613-1.713 0.107-3.335-0.217-4.867-0.97-1.541-0.755-2.796-1.858-3.764-3.309-0.969-1.451-1.506-3.033-1.613-4.746-0.109-1.704 0.215-3.326 0.97-4.866zM35.286 200.109c-1.427 0.27-2.747 0.809-3.958 1.618-1.217 0.813-2.221 1.825-3.012 3.036-0.8 1.209-1.333 2.481-1.599 3.816-0.266 1.335-0.264 2.716 0.005 4.143 0.266 1.422 0.805 2.741 1.618 3.958 0.813 1.217 1.825 2.221 3.036 3.013 1.215 0.796 2.49 1.328 3.824 1.593 1.335 0.266 2.716 0.264 4.143-0.005 1.418-0.272 2.736-0.814 3.953-1.627 1.212-0.809 2.218-1.818 3.018-3.027 0.796-1.215 1.328-2.49 1.594-3.825 0.261-1.331 0.256-2.71-0.014-4.137-0.266-1.422-0.805-2.741-1.618-3.959-0.813-1.217-1.825-2.221-3.036-3.012-1.215-0.796-2.487-1.329-3.816-1.599-1.335-0.266-2.714-0.261-4.138 0.014zM26.614 205.428c0.924-1.903 2.283-3.453 4.079-4.652 1.79-1.195 3.743-1.856 5.861-1.983 2.111-0.124 4.118 0.276 6.02 1.2 1.901 0.933 3.449 2.295 4.644 4.084 1.195 1.79 1.859 3.742 1.992 5.855 0.124 2.111-0.276 4.118-1.2 6.021-0.929 1.906-2.289 3.457-4.079 4.652-1.796 1.199-3.749 1.86-5.86 1.983-2.117 0.127-4.124-0.273-6.021-1.2-1.906-0.929-3.457-2.289-4.652-4.079-1.195-1.79-1.856-3.743-1.984-5.86-0.129-2.108 0.271-4.115 1.2-6.021zM34.848 197.882c-1.722 0.322-3.317 0.973-4.784 1.952-1.468 0.98-2.683 2.205-3.646 3.676-0.957 1.467-1.598 3.012-1.921 4.634-0.322 1.613-0.319 3.283 0.006 5.01 0.322 1.722 0.973 3.317 1.953 4.784 0.98 1.468 2.205 2.683 3.675 3.646 1.467 0.957 3.007 1.597 4.62 1.919 1.622 0.323 3.294 0.324 5.017 0.002 1.727-0.326 3.325-0.978 4.792-1.958 1.468-0.98 2.68-2.203 3.638-3.67 0.963-1.471 1.603-3.015 1.921-4.634 0.327-1.617 0.33-3.286 0.007-5.008-0.326-1.727-0.978-3.325-1.957-4.792-0.98-1.468-2.203-2.68-3.671-3.638-1.471-0.963-3.015-1.603-4.633-1.921-1.617-0.327-3.289-0.328-5.017-0.002zM25.473 202.888c1.041-1.595 2.362-2.927 3.962-3.996 1.601-1.069 3.335-1.776 5.201-2.122 1.876-0.344 3.692-0.344 5.45 0.002 1.756 0.355 3.431 1.053 5.026 2.093 1.597 1.032 2.93 2.348 3.999 3.949 1.069 1.601 1.775 3.339 2.119 5.215 0.346 1.867 0.346 3.679 0.001 5.436-0.355 1.756-1.051 3.434-2.088 5.034-1.035 1.591-2.353 2.921-3.954 3.99-1.601 1.069-3.337 1.778-5.209 2.128-1.87 0.34-3.684 0.338-5.442-0.008-1.756-0.355-3.432-1.048-5.029-2.079-1.595-1.041-2.927-2.362-3.996-3.962-1.069-1.601-1.776-3.335-2.122-5.202-0.344-1.876-0.344-3.692 0.002-5.45 0.355-1.756 1.048-3.432 2.08-5.028zM59.01 237.414v0l9.966-10.708 0.836 0.778-9.965 10.708c-1.088 1.169-2.482 1.74-4.181 1.711-1.699-0.029-3.194-0.644-4.486-1.847-1.292-1.202-2.013-2.649-2.163-4.341-0.146-1.688 0.326-3.116 1.414-4.286v0l9.965-10.708 0.83 0.772-9.966 10.708c-0.874 0.939-1.244 2.097-1.109 3.473 0.135 1.376 0.735 2.56 1.801 3.553 1.071 0.997 2.298 1.514 3.681 1.549 1.377 0.031 2.503-0.423 3.377-1.362zM60.676 238.964v0l9.966-10.708 0.829 0.772-9.965 10.708c-0.747 0.802-1.628 1.411-2.645 1.826-1.012 0.41-2.052 0.615-3.12 0.615-1.059 0-2.126-0.207-3.201-0.623-1.075-0.425-2.042-1.038-2.903-1.839-0.861-0.801-1.54-1.721-2.036-2.757-0.496-1.046-0.782-2.098-0.858-3.155-0.071-1.062 0.059-2.114 0.39-3.156 0.341-1.043 0.885-1.966 1.632-2.769v0l9.965-10.707 0.83 0.771-9.966 10.708c-0.856 0.92-1.397 2.001-1.621 3.244-0.234 1.243-0.135 2.485 0.297 3.727 0.428 1.247 1.141 2.335 2.139 3.265 1.003 0.933 2.139 1.567 3.409 1.899 1.27 0.342 2.517 0.352 3.74 0.029 1.223-0.313 2.263-0.93 3.118-1.85zM62.335 240.508v0l9.965-10.708 0.83 0.772-9.966 10.707c-0.956 1.027-2.082 1.81-3.377 2.349-1.295 0.538-2.614 0.813-3.957 0.823-1.348 0.006-2.702-0.251-4.064-0.769-1.367-0.523-2.593-1.29-3.68-2.301-1.086-1.011-1.937-2.177-2.551-3.498-0.62-1.326-0.973-2.658-1.059-3.998-0.091-1.345 0.086-2.682 0.53-4.013 0.444-1.331 1.144-2.51 2.1-3.537v0l9.966-10.708 0.829 0.772-9.965 10.708c-1.134 1.218-1.858 2.644-2.174 4.277-0.32 1.638-0.206 3.273 0.34 4.904 0.536 1.631 1.455 3.052 2.756 4.264 1.301 1.211 2.785 2.026 4.451 2.443 1.666 0.427 3.304 0.423 4.915-0.013 1.607-0.431 2.977-1.256 4.111-2.474zM64.001 242.058v0l9.965-10.708 0.83 0.772-9.966 10.708c-1.548 1.664-3.418 2.799-5.609 3.408-2.191 0.608-4.416 0.634-6.673 0.076-2.257-0.557-4.259-1.649-6.005-3.274-1.747-1.626-2.979-3.544-3.697-5.756-0.718-2.211-0.852-4.431-0.402-6.66 0.45-2.229 1.449-4.176 2.996-5.84v0l9.966-10.707 0.836 0.778-9.965 10.708c-1.056 1.135-1.832 2.44-2.328 3.914-0.496 1.474-0.698 2.952-0.607 4.434 0.091 1.491 0.478 2.969 1.159 4.435 0.682 1.465 1.619 2.753 2.814 3.864 1.194 1.111 2.546 1.954 4.056 2.529 1.51 0.575 3.012 0.854 4.506 0.838 1.489-0.011 2.951-0.316 4.387-0.916 1.435-0.6 2.681-1.468 3.737-2.603zM90.651 240.786l-6.745 11.745-0.049-2.19 5.812-10.12zM92.625 241.919l-8.598 14.971-0.042-2.221 7.649-13.319zM94.59 243.047l-10.476 18.24-0.023-2.233 9.516-16.571zM67.478 257.583l6.745-11.746 0.053 2.204-5.807 10.111zM65.513 256.454l8.598-14.971 0.028 2.225-7.644 13.311zM63.548 255.326l10.47-18.231 0.029 2.225-9.517 16.57zM77.797 263.51l-0.908-30.628 1.147 0.659 0.918 30.633zM80.101 264.833l-0.891-30.618 1.165 0.669 0.9 30.623zM82.397 266.151l-0.874-30.608 1.147 0.659 0.819 28.449 12.083-21.039 0.983 0.564-13.002 22.639c0 0-0.385-0.221-1.156-0.664zM75.493 262.186l-0.853-28.469-12.083 21.04-0.983-0.564 13.002-22.64c0 0 0.391 0.225 1.174 0.675v0l0.874 30.607zM112.067 250.334l-16.113-5.496 0.369-1.082 16.113 5.496zM111.335 252.478l-16.112-5.496 0.366-1.072 16.112 5.496zM98.79 250.593l-4.299-1.466 0.366-1.072 16.112 5.496-0.365 1.072-4.299-1.466-6.596 19.338-1.073-0.366 6.597-19.338-1.072-0.366-6.597 19.339-1.072-0.366 6.596-19.339-1.081-0.369-6.597 19.339-1.072-0.366 6.596-19.338-1.072-0.366-6.596 19.338-1.073-0.366zM123.386 259.238c-1.342 1.084-2.102 2.483-2.281 4.198-0.178 1.715 0.278 3.241 1.369 4.577 1.084 1.342 2.483 2.102 4.199 2.281 1.715 0.178 3.241-0.278 4.577-1.369 1.342-1.084 2.102-2.483 2.28-4.199 0.178-1.715-0.278-3.241-1.369-4.577-1.084-1.336-2.484-2.092-4.199-2.27-1.715-0.178-3.241 0.275-4.576 1.359zM120.261 266.231c-0.292-0.944-0.386-1.915-0.283-2.912 0.103-0.991 0.394-1.918 0.874-2.782 0.486-0.863 1.092-1.59 1.819-2.18 0.727-0.59 1.562-1.031 2.506-1.322 0.945-0.298 1.913-0.396 2.903-0.293 0.991 0.103 1.918 0.397 2.781 0.883 0.864 0.479 1.591 1.082 2.181 1.809 0.59 0.727 1.034 1.562 1.332 2.507 0.292 0.944 0.386 1.912 0.283 2.902-0.104 0.997-0.395 1.928-0.874 2.792-0.486 0.863-1.092 1.59-1.819 2.18-0.727 0.59-1.562 1.031-2.506 1.323-0.944 0.292-1.912 0.386-2.902 0.283-0.991-0.103-1.918-0.394-2.782-0.874-0.864-0.479-1.591-1.082-2.181-1.809-0.59-0.727-1.034-1.562-1.332-2.507zM120.429 259.072c-0.892 1.218-1.418 2.594-1.578 4.13-0.159 1.536 0.072 2.991 0.696 4.366 0.623 1.375 1.544 2.509 2.762 3.402 1.218 0.892 2.594 1.418 4.13 1.578 1.536 0.159 2.991-0.072 4.366-0.696 1.375-0.623 2.509-1.544 3.401-2.761 0.892-1.218 1.418-2.594 1.578-4.131 0.159-1.536-0.072-2.991-0.696-4.366-0.623-1.375-1.544-2.509-2.761-3.401-1.218-0.892-2.594-1.418-4.13-1.578-1.536-0.159-2.991 0.072-4.366 0.696-1.375 0.623-2.509 1.544-3.402 2.761zM118.511 268.035c-0.704-1.565-0.966-3.215-0.786-4.95 0.18-1.735 0.775-3.293 1.785-4.673 1.011-1.387 2.295-2.433 3.854-3.138 1.565-0.704 3.215-0.966 4.95-0.786 1.735 0.18 3.296 0.776 4.683 1.787 1.38 1.01 2.422 2.298 3.127 3.862 0.705 1.558 0.967 3.205 0.787 4.94-0.18 1.735-0.776 3.296-1.787 4.683-1.011 1.387-2.295 2.429-3.852 3.128-1.565 0.704-3.215 0.966-4.95 0.786-1.735-0.18-3.296-0.776-4.683-1.786-1.381-1.004-2.423-2.288-3.128-3.853zM117.878 258.888c-0.703 1.271-1.13 2.631-1.28 4.08-0.151 1.456-0.013 2.875 0.415 4.256 0.42 1.388 1.06 2.61 1.917 3.667 0.858 1.057 1.922 1.937 3.193 2.64 1.264 0.702 2.624 1.129 4.081 1.28 1.456 0.151 2.875 0.013 4.256-0.414 1.388-0.427 2.611-1.069 3.667-1.928 1.057-0.858 1.937-1.922 2.64-3.193 0.696-1.265 1.119-2.625 1.271-4.081 0.15-1.449 0.016-2.868-0.405-4.256-0.427-1.388-1.069-2.611-1.927-3.667-0.859-1.05-1.923-1.927-3.195-2.63-1.264-0.702-2.624-1.129-4.08-1.281-1.456-0.151-2.875-0.013-4.256 0.415-1.388 0.427-2.61 1.066-3.667 1.917-1.057 0.858-1.933 1.923-2.63 3.195zM116.439 268.959c-0.875-1.925-1.201-3.962-0.978-6.109 0.222-2.141 0.96-4.067 2.213-5.778 1.252-1.704 2.841-2.994 4.766-3.869 1.931-0.868 3.967-1.191 6.108-0.969 2.141 0.222 4.067 0.957 5.779 2.203 1.704 1.252 2.994 2.841 3.869 4.766 0.875 1.932 1.201 3.968 0.979 6.11-0.223 2.147-0.961 4.073-2.213 5.777-1.253 1.711-2.842 3.001-4.766 3.87-1.932 0.875-3.968 1.201-6.109 0.978-2.141-0.222-4.067-0.96-5.778-2.213-1.705-1.246-2.995-2.834-3.87-4.766zM115.884 257.804c-0.851 1.531-1.368 3.174-1.55 4.929-0.182 1.755-0.015 3.473 0.503 5.153 0.518 1.673 1.299 3.152 2.342 4.436 1.037 1.277 2.324 2.341 3.861 3.193 1.531 0.851 3.174 1.368 4.929 1.55 1.755 0.182 3.473 0.015 5.153-0.503 1.673-0.518 3.148-1.296 4.425-2.333 1.284-1.043 2.352-2.329 3.203-3.86 0.852-1.538 1.369-3.184 1.551-4.939 0.182-1.755 0.014-3.469-0.504-5.143-0.518-1.68-1.298-3.159-2.341-4.436-1.036-1.284-2.319-2.351-3.851-3.202-1.538-0.852-3.184-1.369-4.939-1.551-1.755-0.182-3.469-0.014-5.143 0.504-1.68 0.518-3.159 1.298-4.436 2.341-1.284 1.036-2.351 2.323-3.203 3.861zM113.755 268.217c-0.564-1.819-0.746-3.686-0.548-5.601 0.199-1.915 0.761-3.701 1.686-5.359 0.932-1.664 2.092-3.062 3.479-4.194 1.394-1.125 3-1.97 4.819-2.534 1.813-0.571 3.677-0.757 5.592-0.558 1.915 0.199 3.704 0.764 5.368 1.696 1.658 0.925 3.053 2.081 4.185 3.469 1.125 1.394 1.973 3 2.544 4.82 0.564 1.812 0.747 3.676 0.548 5.591-0.199 1.915-0.761 3.704-1.686 5.368-0.931 1.657-2.091 3.052-3.479 4.185-1.394 1.125-2.997 1.974-4.81 2.545-1.819 0.564-3.686 0.746-5.601 0.547-1.915-0.199-3.701-0.761-5.358-1.686-1.664-0.932-3.062-2.092-4.195-3.479-1.125-1.394-1.974-2.997-2.544-4.81zM151.674 268.426l0.911 9.037-1.137 0.115-2.62-25.975 12.499-1.261 0.115 1.137-11.362 1.146 0.114 1.127 11.362-1.146 0.113 1.128-11.361 1.146 0.113 1.127 11.362-1.146 0.114 1.127-11.362 1.146 0.569 5.646 10.833-1.093 0.115 1.137-10.833 1.093 0.114 1.127 10.833-1.092 0.113 1.127-10.833 1.092 0.114 1.128 10.833-1.093 0.114 1.127zM147.701 251.716l2.62 25.976-1.127 0.113-2.62-25.975zM145.447 251.944l2.619 25.975-1.127 0.114-2.619-25.976zM143.182 252.172l2.62 25.975-1.127 0.114-2.62-25.975zM190.239 268.026l-3.118-9 0.371-2.388 3.817 11.017zM192.389 267.281l-4.542-13.111 0.371-2.389 5.242 15.129zM194.53 266.539l-5.944-17.156 0.361-2.417 6.654 19.202zM186.769 241.598l-2.721 17.931-1.003-0.905 2.521-16.609zM184.344 242.439l-2.348 15.18-1.016-0.911 2.142-13.846zM178.918 271.948l-3.778-10.903 1.783 1.653 3.075 8.876zM176.777 272.69l-5.192-14.987 1.773 1.657 4.49 12.959zM174.636 273.432l-6.604-19.06 1.777 1.666 5.898 17.023zM165.152 249.089l15.924 14.907-1.213 0.42-14.145-13.232 7.839 22.622-1.071 0.371-8.547-24.668zM167.586 248.245l15.915 14.911-1.222 0.423-15.915-14.911zM196.671 265.797l-7.838-22.622-2.916 19.144-1.222 0.423-15.896-14.917 1.203-0.417 14.924 13.981 3.056-20.211 1.222-0.423 8.547 24.668zM200.894 242.952c-0.362 1.687-0.073 3.253 0.867 4.698 0.94 1.446 2.255 2.345 3.943 2.698 1.687 0.362 3.253 0.073 4.698-0.867 1.446-0.94 2.345-2.255 2.698-3.943 0.362-1.687 0.073-3.253-0.867-4.698-0.94-1.446-2.255-2.345-3.943-2.698-1.683-0.357-3.247-0.065-4.693 0.875-1.446 0.94-2.347 2.252-2.703 3.935zM202.862 250.355c-0.821-0.551-1.504-1.246-2.051-2.087-0.543-0.835-0.9-1.739-1.07-2.712-0.165-0.977-0.151-1.923 0.043-2.839 0.194-0.915 0.566-1.783 1.117-2.604 0.547-0.826 1.238-1.511 2.073-2.054 0.835-0.543 1.741-0.897 2.718-1.062 0.973-0.171 1.918-0.159 2.833 0.035 0.915 0.194 1.786 0.564 2.612 1.112 0.821 0.551 1.502 1.243 2.046 2.078 0.547 0.84 0.905 1.747 1.075 2.721 0.165 0.977 0.151 1.923-0.043 2.839-0.194 0.915-0.566 1.783-1.117 2.604-0.551 0.821-1.243 1.502-2.078 2.045-0.835 0.543-1.739 0.9-2.713 1.07-0.973 0.171-1.918 0.159-2.833-0.035-0.915-0.194-1.786-0.564-2.612-1.111zM198.491 244.682c0.072 1.508 0.529 2.909 1.37 4.204 0.842 1.294 1.937 2.28 3.287 2.957 1.349 0.677 2.778 0.98 4.286 0.908 1.508-0.072 2.909-0.529 4.203-1.37 1.294-0.842 2.28-1.937 2.958-3.287 0.677-1.349 0.98-2.778 0.908-4.286-0.072-1.508-0.529-2.909-1.371-4.204-0.842-1.294-1.937-2.28-3.286-2.957-1.349-0.677-2.778-0.98-4.286-0.908-1.508 0.072-2.909 0.529-4.204 1.371-1.294 0.842-2.28 1.937-2.957 3.286-0.677 1.349-0.98 2.778-0.908 4.286zM202.636 252.858c-1.532-0.774-2.773-1.892-3.724-3.355-0.951-1.462-1.468-3.048-1.551-4.756-0.086-1.714 0.255-3.335 1.023-4.863 0.774-1.532 1.892-2.773 3.354-3.724 1.462-0.951 3.051-1.47 4.765-1.556 1.708-0.083 3.328 0.263 4.86 1.037 1.528 0.768 2.768 1.883 3.719 3.346 0.951 1.462 1.47 3.051 1.556 4.764 0.086 1.714-0.257 3.332-1.029 4.855-0.774 1.532-1.892 2.773-3.354 3.724-1.462 0.951-3.051 1.47-4.764 1.556-1.705 0.088-3.323-0.255-4.855-1.028zM196.391 246.143c0.253 1.43 0.776 2.756 1.571 3.978 0.798 1.227 1.798 2.243 2.999 3.049 1.199 0.815 2.465 1.363 3.797 1.645 1.332 0.282 2.713 0.297 4.143 0.044 1.425-0.249 2.751-0.772 3.977-1.571 1.227-0.798 2.243-1.798 3.049-2.999 0.811-1.205 1.357-2.473 1.639-3.805 0.282-1.332 0.297-2.713 0.045-4.143-0.255-1.421-0.781-2.745-1.579-3.972-0.794-1.221-1.791-2.239-2.991-3.054-1.205-0.811-2.473-1.357-3.805-1.639-1.328-0.276-2.707-0.288-4.138-0.036-1.425 0.249-2.751 0.772-3.977 1.57-1.227 0.798-2.243 1.798-3.049 2.999-0.811 1.205-1.359 2.471-1.645 3.797-0.282 1.332-0.294 2.711-0.036 4.137zM201.606 254.879c-1.891-0.947-3.425-2.325-4.602-4.135-1.173-1.804-1.811-3.765-1.913-5.883-0.098-2.113 0.326-4.115 1.272-6.006 0.956-1.889 2.336-3.421 4.14-4.595 1.804-1.173 3.764-1.814 5.878-1.921 2.113-0.098 4.115 0.326 6.006 1.272 1.895 0.952 3.429 2.33 4.603 4.135 1.177 1.81 1.815 3.771 1.913 5.884 0.102 2.118-0.322 4.12-1.272 6.006-0.952 1.895-2.33 3.429-4.135 4.602-1.804 1.173-3.765 1.811-5.884 1.913-2.109 0.104-4.111-0.32-6.006-1.272zM194.159 246.555c0.301 1.726 0.933 3.328 1.895 4.807 0.962 1.479 2.173 2.709 3.632 3.69 1.455 0.975 2.992 1.634 4.61 1.976 1.609 0.341 3.279 0.359 5.01 0.055 1.726-0.301 3.328-0.933 4.808-1.895 1.479-0.962 2.709-2.173 3.689-3.632 0.975-1.455 1.633-2.987 1.974-4.596 0.343-1.618 0.364-3.29 0.063-5.016-0.305-1.731-0.938-3.337-1.9-4.816-0.962-1.479-2.171-2.706-3.626-3.681-1.459-0.981-2.996-1.64-4.611-1.977-1.613-0.346-3.282-0.369-5.007-0.068-1.731 0.305-3.337 0.938-4.816 1.9-1.479 0.962-2.706 2.171-3.681 3.626-0.981 1.459-1.64 2.996-1.977 4.611-0.346 1.613-0.367 3.285-0.063 5.016zM199.052 255.99c-1.582-1.06-2.898-2.397-3.948-4.01-1.049-1.614-1.736-3.356-2.059-5.227-0.322-1.88-0.299-3.696 0.067-5.449 0.376-1.751 1.094-3.418 2.154-5.001 1.051-1.584 2.383-2.901 3.996-3.95 1.614-1.049 3.36-1.735 5.24-2.057 1.871-0.324 3.682-0.302 5.436 0.065 1.751 0.376 3.421 1.092 5.009 2.148 1.579 1.054 2.893 2.388 3.942 4.002 1.049 1.614 1.738 3.359 2.065 5.234 0.318 1.874 0.294 3.688-0.073 5.442-0.376 1.751-1.089 3.419-2.139 5.003-1.06 1.582-2.397 2.898-4.011 3.948-1.614 1.049-3.356 1.736-5.226 2.059-1.88 0.322-3.696 0.299-5.45-0.067-1.751-0.376-3.419-1.089-5.003-2.14zM223.61 212.673l9.762 9.389-2.137-0.483-8.41-8.09zM225.188 211.032l12.443 11.968-2.166-0.496-11.07-10.648zM226.758 209.399l15.16 14.581-2.173-0.517-13.772-13.247zM234.294 239.225l-9.762-9.39 2.151 0.483 8.404 8.083zM232.724 240.858l-12.443-11.968 2.165 0.511 11.063 10.64zM231.153 242.491l-15.152-14.574 2.165 0.51 13.772 13.247zM242.544 230.648l-29.936-6.537 0.917-0.954 29.944 6.53zM244.386 228.733l-29.922-6.551 0.931-0.968 29.929 6.543zM246.221 226.825l-29.909-6.565 0.918-0.954 27.8 6.096-17.486-16.819 0.785-0.817 18.816 18.098c0 0-0.308 0.32-0.924 0.961zM240.702 232.562l-27.828-6.067 17.487 16.819-0.786 0.817-18.816-18.098c0 0 0.313-0.325 0.939-0.975v0l29.908 6.565zM231.05 202.804l22.099 13.899-0.603 0.959-22.1-13.899zM229.843 204.722l22.1 13.899-0.604 0.959-22.099-13.899zM228.632 206.648l22.099 13.9-0.603 0.959-22.1-13.9zM245.713 209.338l3.844 2.418 6.427-10.218 0.959 0.603-6.427 10.218 0.959 0.603 6.427-10.218 0.967 0.608-6.426 10.218 0.959 0.604 6.426-10.218 0.959 0.603-7.035 11.185-22.099-13.899 7.035-11.186 0.967 0.609-6.426 10.218 0.959 0.603 6.426-10.218 0.959 0.603-6.426 10.218 0.959 0.603 6.426-10.218 0.959 0.603-6.426 10.218 3.844 2.418 3.294-5.236 0.959 0.603-3.294 5.237 0.968 0.608 3.293-5.236 0.959 0.603-3.293 5.236 0.959 0.603 3.293-5.236 0.959 0.603zM239.26 188.352l14.342-1.229 0.972 0.97-15.719 1.328zM240.064 186.234l11.615-1.052 0.956 0.985-12.973 1.126zM240.868 184.115l8.901-0.88 0.96 0.975-10.263 0.964zM266.18 190.995l-8.221-3.119-13.276-13.819 0.402-1.059 13.276 13.819 8.221 3.118zM266.984 188.876l-8.221-3.119-13.276-13.818 0.402-1.06 13.276 13.819 8.221 3.119zM267.788 186.758l-8.221-3.119-13.276-13.819 0.405-1.069 13.276 13.819 8.221 3.119zM238.453 190.48l17.777-1.437-12.354-12.858 0.402-1.059 13.276 13.818 8.221 3.119-0.402 1.059-8.221-3.118-19.101 1.535zM3.183 140.83c0-5.747 4.659-10.406 10.406-10.406 5.747 0 10.406 4.659 10.406 10.406 0 5.747-4.659 10.406-10.406 10.406-5.747 0-10.406-4.659-10.406-10.406zM254.275 140.83c0-5.747 4.659-10.406 10.406-10.406 5.747 0 10.406 4.659 10.406 10.406 0 5.747-4.659 10.406-10.406 10.406-5.747 0-10.406-4.659-10.406-10.406z" fill="#fe0039" data-fill-palette-color="primary"></path></svg></g><g transform="matrix(1,0,0,1,0,295.46666128000004)"><svg viewBox="0 0 278.2696 22.895402578186303" height="22.895402578186303" width="278.2696"><g transform="matrix(1,0,0,1,0,0)"><svg width="278.2696" viewBox="0.95 -36 446.01 36.7" height="22.895402578186303" data-palette-color="#c1c1c1"><path d="M26.05-36L35.05-36 28.75 0 19.7 0 22-13 12.25-13 10 0 0.95 0 7.3-36 16.3-36 13.6-20.8 23.35-20.8 26.05-36ZM46.05 0.7L46.05 0.7Q35.65 0.7 35.65-6.5L35.65-6.5Q35.65-7.5 35.85-8.65L35.85-8.65 36.9-14.85Q37.75-19.65 41.32-22.23 44.9-24.8 50.8-24.8L50.8-24.8Q60.85-24.8 60.85-17.2L60.85-17.2Q60.85-16.1 60.65-14.8L60.65-14.8 60.05-11.25 44.8-11.25 44.6-10.1Q44.5-9.5 44.5-9L44.5-9Q44.5-6.25 47.75-6.25L47.75-6.25Q48.95-6.25 49.8-7 50.65-7.75 50.8-8.75L50.8-8.75 59.1-8.65Q57.45 0.7 46.05 0.7ZM45.3-14.3L52.05-14.3Q52.25-15.15 52.25-15.88 52.25-16.6 51.6-17.35 50.95-18.1 49.52-18.1 48.1-18.1 46.92-17.15 45.75-16.2 45.3-14.3L45.3-14.3ZM87.8-18.95L87.8-18.95Q87.8-17.25 87.22-15.65 86.65-14.05 86.1-13.3L86.1-13.3 85.55-12.6 78-12.6Q79.25-13.75 79.25-15.45L79.25-15.45Q79.25-16.35 78.67-16.93 78.1-17.5 77.1-17.5L77.1-17.5Q75.4-17.5 74.15-15.8L74.15-15.8 71.35 0 62.85 0 67.1-24.05 75-24.05 74.4-20.7Q77.25-24.75 81.3-24.75L81.3-24.75Q84.55-24.75 86.17-23.2 87.8-21.65 87.8-18.95ZM99.34 0.7L99.34 0.7Q88.94 0.7 88.94-6.5L88.94-6.5Q88.94-7.5 89.14-8.65L89.14-8.65 90.19-14.85Q91.04-19.65 94.62-22.23 98.19-24.8 104.09-24.8L104.09-24.8Q114.14-24.8 114.14-17.2L114.14-17.2Q114.14-16.1 113.94-14.8L113.94-14.8 113.34-11.25 98.09-11.25 97.89-10.1Q97.79-9.5 97.79-9L97.79-9Q97.79-6.25 101.04-6.25L101.04-6.25Q102.24-6.25 103.09-7 103.94-7.75 104.09-8.75L104.09-8.75 112.39-8.65Q110.74 0.7 99.34 0.7ZM98.59-14.3L105.34-14.3Q105.54-15.15 105.54-15.88 105.54-16.6 104.89-17.35 104.24-18.1 102.82-18.1 101.39-18.1 100.22-17.15 99.04-16.2 98.59-14.3L98.59-14.3ZM139.54 0.7L139.54 0.7Q133.74 0.7 131.19-1.9L131.19-1.9Q129.29-3.8 129.29-7L129.29-7Q129.29-8.05 129.49-9.25L129.49-9.25 132.89-28.6 142.04-32.4 140.59-24.05 154.39-24.05 153.14-17 139.34-17 138.34-11.35Q138.14-10.4 138.14-9.65L138.14-9.65Q138.14-6.5 141.14-6.5L141.14-6.5Q142.74-6.5 143.81-7.85 144.89-9.2 145.29-11.45L145.29-11.45 153.59-11.45Q151.49 0.7 139.54 0.7ZM171.24-24.75L171.24-24.75Q176.63-24.75 179.38-22.4L179.38-22.4Q181.53-20.55 181.53-17.25L181.53-17.25Q181.53-16.15 181.28-14.85L181.28-14.85 180.24-9Q179.28-3.7 175.81-1.5 172.34 0.7 166.53 0.7 160.74 0.7 158.03-1.5L158.03-1.5Q156.03-3.15 156.03-6.45L156.03-6.45Q156.03-7.6 156.28-9L156.28-9 157.34-14.85Q159.09-24.75 171.24-24.75ZM171.94-10.1L172.59-13.85Q172.69-14.35 172.69-15.13 172.69-15.9 172.03-16.85 171.38-17.8 169.76-17.8 168.13-17.8 167.03-16.73 165.94-15.65 165.63-13.85L165.63-13.85 164.99-10.1Q164.88-9.6 164.88-8.83 164.88-8.05 165.53-7.15 166.19-6.25 167.81-6.25 169.44-6.25 170.53-7.38 171.63-8.5 171.94-10.1L171.94-10.1ZM206.58 0.7L206.58 0.7Q196.18 0.7 196.18-6.5L196.18-6.5Q196.18-7.5 196.38-8.65L196.38-8.65 197.43-14.85Q198.28-19.65 201.85-22.23 205.43-24.8 211.33-24.8L211.33-24.8Q221.38-24.8 221.38-17.2L221.38-17.2Q221.38-16.1 221.18-14.8L221.18-14.8 220.58-11.25 205.33-11.25 205.13-10.1Q205.03-9.5 205.03-9L205.03-9Q205.03-6.25 208.28-6.25L208.28-6.25Q209.48-6.25 210.33-7 211.18-7.75 211.33-8.75L211.33-8.75 219.63-8.65Q217.98 0.7 206.58 0.7ZM205.83-14.3L212.58-14.3Q212.78-15.15 212.78-15.88 212.78-16.6 212.13-17.35 211.48-18.1 210.06-18.1 208.63-18.1 207.45-17.15 206.28-16.2 205.83-14.3L205.83-14.3ZM247.53-7.7L247.53-7.7Q247.53-6.4 248.85-6.4 250.18-6.4 251.08-6.9L251.08-6.9 250.83-1.25Q248.43 0.7 245.43 0.7L245.43 0.7Q239.93 0.7 239.33-3.3L239.33-3.3Q236.83 0.7 231.98 0.7L231.98 0.7Q223.78 0.7 223.78-6.35L223.78-6.35Q223.78-7.55 224.03-9L224.03-9 225.08-14.85Q225.88-19.35 228.75-22.03 231.63-24.7 236.25-24.7 240.88-24.7 242.53-22.55L242.53-22.55 242.78-24.05 250.38-24.05 247.58-8.3Q247.53-8 247.53-7.7ZM233.38-13.85L232.73-10.1Q232.63-9.65 232.63-8.85 232.63-8.05 233.38-7.28 234.13-6.5 235.9-6.5 237.68-6.5 238.98-7.9L238.98-7.9 240.48-16.3Q239.93-17.55 237.88-17.55L237.88-17.55Q234.03-17.55 233.38-13.85L233.38-13.85ZM278.43-18.95L278.43-18.95Q278.43-17.25 277.85-15.65 277.27-14.05 276.72-13.3L276.72-13.3 276.18-12.6 268.63-12.6Q269.88-13.75 269.88-15.45L269.88-15.45Q269.88-16.35 269.3-16.93 268.72-17.5 267.72-17.5L267.72-17.5Q266.02-17.5 264.77-15.8L264.77-15.8 261.97 0 253.47 0 257.72-24.05 265.63-24.05 265.02-20.7Q267.88-24.75 271.93-24.75L271.93-24.75Q275.18-24.75 276.8-23.2 278.43-21.65 278.43-18.95ZM295.97-15.35L295.97-15.35Q295.97-17.5 293.9-17.5 291.82-17.5 290.47-15.95L290.47-15.95 287.67 0 279.17 0 283.42-24.05 291.32-24.05 290.77-21.1Q293.72-24.75 298.22-24.75 302.72-24.75 304.07-22.55L304.07-22.55Q304.92-21.15 304.92-19.35 304.92-17.55 304.67-16L304.67-16 303.32-8.3Q303.27-8 303.27-7.75L303.27-7.75Q303.27-6.4 304.77-6.4L304.77-6.4Q305.92-6.4 306.82-6.9L306.82-6.9 306.57-1.25Q304.22 0.7 301.22 0.7L301.22 0.7Q294.42 0.7 294.42-5L294.42-5Q294.42-6 294.62-7.15L294.62-7.15 295.82-13.8Q295.97-14.7 295.97-15.35ZM363.17-6.4L363.17-6.4Q364.32-6.4 365.22-6.9L365.22-6.9 364.97-1.25Q362.62 0.7 359.62 0.7L359.62 0.7Q352.82 0.7 352.82-5L352.82-5Q352.82-6 353.02-7.15L353.02-7.15 354.07-13.3Q354.22-14.2 354.22-15.1L354.22-15.1Q354.22-17.5 351.59-17.5 348.97-17.5 347.47-15.45L347.47-15.45 344.77 0 336.27 0 338.62-13.3Q338.77-14.2 338.77-15.1L338.77-15.1Q338.77-17.5 336.07-17.5L336.07-17.5Q333.92-17.5 332.37-15.85L332.37-15.85 329.57 0 321.07 0 325.32-24.05 333.22-24.05 332.67-21.05Q335.67-24.75 340.27-24.75L340.27-24.75Q346.77-24.75 347.67-20.45L347.67-20.45Q350.67-24.75 355.69-24.75 360.72-24.75 362.22-22.5L362.22-22.5Q363.22-20.95 363.22-19.1 363.22-17.25 362.97-15.75L362.97-15.75 361.72-8.3Q361.67-8 361.67-7.75L361.67-7.75Q361.67-6.4 363.17-6.4ZM383.12-24.75L383.12-24.75Q388.51-24.75 391.26-22.4L391.26-22.4Q393.42-20.55 393.42-17.25L393.42-17.25Q393.42-16.15 393.17-14.85L393.17-14.85 392.12-9Q391.17-3.7 387.69-1.5 384.21 0.7 378.42 0.7 372.62 0.7 369.92-1.5L369.92-1.5Q367.92-3.15 367.92-6.45L367.92-6.45Q367.92-7.6 368.17-9L368.17-9 369.21-14.85Q370.96-24.75 383.12-24.75ZM383.81-10.1L384.46-13.85Q384.56-14.35 384.56-15.13 384.56-15.9 383.92-16.85 383.26-17.8 381.64-17.8 380.01-17.8 378.92-16.73 377.81-15.65 377.51-13.85L377.51-13.85 376.87-10.1Q376.76-9.6 376.76-8.83 376.76-8.05 377.42-7.15 378.06-6.25 379.69-6.25 381.31-6.25 382.42-7.38 383.51-8.5 383.81-10.1L383.81-10.1ZM420.61-18.95L420.61-18.95Q420.61-17.25 420.04-15.65 419.46-14.05 418.91-13.3L418.91-13.3 418.36-12.6 410.81-12.6Q412.06-13.75 412.06-15.45L412.06-15.45Q412.06-16.35 411.49-16.93 410.91-17.5 409.91-17.5L409.91-17.5Q408.21-17.5 406.96-15.8L406.96-15.8 404.16 0 395.66 0 399.91-24.05 407.81-24.05 407.21-20.7Q410.06-24.75 414.11-24.75L414.11-24.75Q417.36-24.75 418.99-23.2 420.61-21.65 420.61-18.95ZM432.16 0.7L432.16 0.7Q421.76 0.7 421.76-6.5L421.76-6.5Q421.76-7.5 421.96-8.65L421.96-8.65 423.01-14.85Q423.86-19.65 427.44-22.23 431.01-24.8 436.91-24.8L436.91-24.8Q446.96-24.8 446.96-17.2L446.96-17.2Q446.96-16.1 446.76-14.8L446.76-14.8 446.16-11.25 430.91-11.25 430.71-10.1Q430.61-9.5 430.61-9L430.61-9Q430.61-6.25 433.86-6.25L433.86-6.25Q435.06-6.25 435.91-7 436.76-7.75 436.91-8.75L436.91-8.75 445.21-8.65Q443.56 0.7 432.16 0.7ZM431.41-14.3L438.16-14.3Q438.36-15.15 438.36-15.88 438.36-16.6 437.71-17.35 437.06-18.1 435.63-18.1 434.21-18.1 433.03-17.15 431.86-16.2 431.41-14.3L431.41-14.3Z" opacity="1" transform="matrix(1,0,0,1,0,0)" fill="#c1c1c1" class="undefined-text-1" data-fill-palette-color="secondary" id="text-1"></path></svg></g></svg></g></svg></g></svg></g></svg></g></svg><rect width="244.738606904833" height="280" fill="none" stroke="none" visibility="hidden"></rect></g></svg></g></svg>